<svg id="Capa_1" data-name="Capa 1" xmlns="http://www.w3.org/2000/svg" viewBox="0 0 136 136"><defs><style>.cls-1{fill:#009e5d;}</style></defs><title>ICONO</title><path class="cls-1" d="M18.63,56.18V109h14a7.36,7.36,0,0,1,14.49,0H81.88V56.18Z"/><path d="M39.56,100.15A10.43,10.43,0,1,0,50,110.57,10.43,10.43,0,0,0,39.56,100.15Zm0,17.37a7,7,0,1,1,6.95-7A7,7,0,0,1,39.56,117.52Z"/><path d="M98.64,100.15a10.43,10.43,0,1,0,10.42,10.42A10.43,10.43,0,0,0,98.64,100.15Zm0,17.37a7,7,0,1,1,7-7A6.95,6.95,0,0,1,98.64,117.52Z"/><path d="M119.21,90.52,103.57,66.19a1.73,1.73,0,0,0-1.46-.8H83a1.74,1.74,0,0,0-1.74,1.74v43.44A1.74,1.74,0,0,0,83,112.31h7v-3.47H84.74v-40h16.42L116,92v16.87h-8.68v3.47h10.42a1.74,1.74,0,0,0,1.74-1.74V91.46A1.75,1.75,0,0,0,119.21,90.52Z"/><path d="M91.69,88V75.82h13.9V72.34H90a1.74,1.74,0,0,0-1.74,1.74V89.72A1.74,1.74,0,0,0,90,91.46H116V88Z"/><path d="M83,53.23H17A1.74,1.74,0,0,0,15.23,55v55.6A1.74,1.74,0,0,0,17,112.31h13.9v-3.47H18.7V56.7H81.26v52.14h-33v3.47H83a1.74,1.74,0,0,0,1.74-1.74V55A1.74,1.74,0,0,0,83,53.23Z"/><rect x="16.97" y="101.89" width="10.43" height="3.48"/><rect x="51.72" y="101.89" width="29.54" height="3.48"/><rect x="110.8" y="101.89" width="6.95" height="3.48"/><rect x="22.18" y="60.18" width="60.82" height="3.48"/><rect x="37.82" y="108.84" width="3.48" height="3.48"/><rect x="96.9" y="108.84" width="3.48" height="3.48"/><path d="M79.32,56.22a2.14,2.14,0,0,1-2.14-2.14V22.27H44.69l-.08,31.82a2.14,2.14,0,0,1-2.14,2.13h0a2.13,2.13,0,0,1-2.13-2.14l.09-33.95A2.14,2.14,0,0,1,42.56,18H79.32a2.13,2.13,0,0,1,2.13,2.14V54.08A2.13,2.13,0,0,1,79.32,56.22Z"/><path d="M118.64,87a2.13,2.13,0,0,1-2.14-2.13V26.55H81.88a2.14,2.14,0,0,1,0-4.28h36.76a2.13,2.13,0,0,1,2.13,2.14V84.86A2.13,2.13,0,0,1,118.64,87Z"/><path d="M72.91,29.54H48.12a2.14,2.14,0,1,1,0-4.27H72.91a2.14,2.14,0,0,1,0,4.27Z"/><path d="M72.91,38.09H48.12a2.14,2.14,0,1,1,0-4.28H72.91a2.14,2.14,0,0,1,0,4.28Z"/><path d="M72.91,46.63H48.12a2.14,2.14,0,1,1,0-4.27H72.91a2.14,2.14,0,0,1,0,4.27Z"/><path d="M111.37,33.81H86.58a2.14,2.14,0,1,1,0-4.27h24.79a2.14,2.14,0,1,1,0,4.27Z"/><path d="M111.37,42.36H86.58a2.14,2.14,0,1,1,0-4.27h24.79a2.14,2.14,0,1,1,0,4.27Z"/><path d="M111.37,50.91H86.58a2.14,2.14,0,0,1,0-4.28h24.79a2.14,2.14,0,1,1,0,4.28Z"/><path d="M50.7,89.37a1.91,1.91,0,0,0,1.51-.72L60,79l-3-2.42L50.3,84.84,46,82l-2.15,3.22,5.81,3.87A1.94,1.94,0,0,0,50.7,89.37Z"/></svg>