<?xml version="1.0" encoding="UTF-8"?>
<svg width="64px" height="57px" viewBox="0 0 64 57" version="1.1" xmlns="http://www.w3.org/2000/svg" xmlns:xlink="http://www.w3.org/1999/xlink">
    <!-- Generator: Sketch 47.1 (45422) - http://www.bohemiancoding.com/sketch -->
    <title>2-extra-large</title>
    <desc>Created with Sketch.</desc>
    <defs></defs>
    <g id="Page-1" stroke="none" stroke-width="1" fill="none" fill-rule="evenodd">
        <g id="2-extra-large" fill="#323937">
            <path d="M1.845,52.535 L0.155,51.465 L19.155,21.465 C19.332,21.185 19.638,21.011 19.969,21 C20.304,20.989 20.616,21.145 20.81,21.414 L25.876,28.414 L24.256,29.586 L20.055,23.782 L1.845,52.535" id="Fill-271"></path>
            <path d="M36,34 C35.735,34 35.481,33.895 35.293,33.707 L30.293,28.707 L31.707,27.293 L35.933,31.519 L40.232,26.36 C40.412,26.144 40.674,26.014 40.955,26.001 C41.234,25.996 41.508,26.094 41.707,26.293 L44,28.586 L47.293,25.293 L48.707,26.707 L44.707,30.707 C44.316,31.098 43.684,31.098 43.293,30.707 L41.067,28.481 L36.768,33.641 C36.588,33.856 36.326,34 36.045,34 C36.03,34 36.015,34 36,34" id="Fill-272"></path>
            <path d="M62.133,52.498 L39.976,13.963 L26.854,35.52 L25.146,34.48 L39.146,11.48 C39.33,11.178 39.637,10.999 40.013,11 C40.366,11.004 40.691,11.195 40.867,11.501 L63.867,51.502 L62.133,52.498" id="Fill-273"></path>
            <path d="M42.293,52.707 L36.586,47 L32,47 C31.735,47 31.48,46.895 31.293,46.707 L25,40.414 L12.707,52.707 L11.293,51.293 L24.293,38.293 C24.684,37.902 25.316,37.902 25.707,38.293 L32.414,45 L37,45 C37.265,45 37.52,45.105 37.707,45.293 L43.707,51.293 L42.293,52.707" id="Fill-274"></path>
            <path d="M4.956,6 C3.322,6.023 2,7.36 2,9 C2,10.654 3.346,12 5,12 L17,12 C18.654,12 20,10.654 20,9 C20,7.346 18.654,6 17,6 C16.983,6.008 16.92,6.015 16.854,6.017 C16.443,6.039 16.022,5.76 15.878,5.347 C15.597,4.541 14.843,4 14,4 C13.619,4 13.215,4.223 12.69,4.724 C12.425,4.976 12.044,5.063 11.695,4.953 C11.347,4.841 11.087,4.549 11.018,4.189 C10.785,2.982 9.655,2 8.5,2 C7.122,2 6,3.122 6,4.5 C6,4.611 6.019,4.718 6.035,4.825 C6.078,5.113 5.995,5.421 5.805,5.642 C5.615,5.862 5.341,6.005 5.051,6.005 C5.024,6.005 4.99,6.003 4.956,6 Z M17,14 L5,14 C2.243,14 0,11.757 0,9 C0,6.579 1.729,4.554 4.018,4.097 C4.223,1.804 6.154,0 8.5,0 C10.112,0 11.646,0.985 12.459,2.409 C12.899,2.171 13.414,2 14,2 C15.446,2 16.762,2.789 17.463,4.021 C20.004,4.256 22,6.399 22,9 C22,11.757 19.757,14 17,14 L17,14 Z" id="Fill-275"></path>
            <polygon id="Fill-276" points="0 57 64 57 64 55 0 55"></polygon>
        </g>
    </g>
</svg>