<svg id="Capa_1" data-name="Capa 1" xmlns="http://www.w3.org/2000/svg" viewBox="0 0 1080 1080"><defs><style>.cls-1{fill:#fff;}.cls-2{fill:#005e73;}.cls-3{fill:#008a78;}.cls-4{fill:#2dae2f;}.cls-5{fill:#00747f;}.cls-6{fill:#2f4858;}</style></defs><title>LOGO</title><path class="cls-1" d="M866.15,636.36l7-14.4a14.72,14.72,0,0,1,17.73-7.59L994.63,647.6l-16.51,43.14L874.63,656.43A14.48,14.48,0,0,1,866.15,636.36Z"/><path class="cls-2" d="M469.29,554.39,489.61,566s-17.42,52.26,31.93,153.87l-58.06-31.94S446.06,612.45,469.29,554.39Z"/><path class="cls-3" d="M658,725.67S530.25,751.8,536.06,566H489.61s-17.42,101.61,40.64,153.87C530.25,719.87,576.7,772.12,658,725.67Z"/><path class="cls-4" d="M736.38,638.58l2.9-26.13L573.8,566S568,632.77,623.15,690.84l142.26,40.64s-26.13-31.93-26.13-58.06l-46.45,29-55.16-23.23V656l58.06-29,40.65,14.51Z"/><path class="cls-5" d="M948.31,595S893.15,473.1,811.86,539.87c0,0-78.39,55.16-23.23,171.29,0,0,26.13,55.16,87.1,43.55,0,0,58.06-14.52,63.87-63.87,0,0-43.55,75.48-104.52,29,0,0-46.45-29-34.83-107.42C800.25,612.45,855.41,478.91,948.31,595Z"/><path class="cls-2" d="M472.19,255.36s-2.9-52.25-23.22-58.06L777,313.43s52.26,107.41,40.64,159.67l-37.74-23.22S794.44,357,669.6,325Z"/><path class="cls-3" d="M170.26,278.59s-153.86,275.8,0,423.86L486.71,827.28s-180-145.15,2.9-438.37Z"/><path class="cls-1" d="M492.89,829.14a2.77,2.77,0,0,1-1.06-.2L170.57,702.84a3,3,0,0,1-1-.7c-83.09-87.8-78.7-198.49-60.39-275.89,19.77-83.57,59.65-147.36,60-148a2.92,2.92,0,0,1,3.4-1.2L487.82,385.15a2.88,2.88,0,0,1,1.59,1.32l27,48a2.88,2.88,0,0,1,0,2.92c-67.63,112.21-61.69,207.28-44.8,267.29,18.32,65.09,53.13,104.18,53.48,104.56a2.94,2.94,0,0,1,.69,2.49,2.89,2.89,0,0,1-1.55,2.06l-30,15A3,3,0,0,1,492.89,829.14ZM173.29,697.67l319.45,125.4,25.58-12.79C509.93,800,482,762.75,466.08,706.56c-17.21-60.9-23.38-157.2,44.47-270.68l-25.66-45.6-312-107c-6.75,11.26-40.53,69.89-58.14,144.43C96.83,503.57,92.49,611.88,173.29,697.67Z"/><path class="cls-1" d="M488.38,830.65a2.91,2.91,0,0,1-2-.82c-92.51-89.37-87.62-204.93-67.23-286.15,22-87.66,66.38-155.22,66.82-155.89A2.9,2.9,0,1,1,490.8,391c-.44.66-44.32,67.52-66.07,154.25-20,79.68-24.8,193,65.67,280.4a2.91,2.91,0,0,1-2,5Z"/><path class="cls-1" d="M854.67,494.38a2.9,2.9,0,0,1-2.9-2.91c0-109.26-53.34-206.56-59.14-216.82L480.45,158.7l-26.7,37.38c22.26,12.37,22.52,56.26,22.52,58.2a2.9,2.9,0,1,1-5.8,0c0-.46-.28-46.14-22.14-54.33a2.91,2.91,0,0,1-1.75-1.87,2.87,2.87,0,0,1,.41-2.54l30-42a2.91,2.91,0,0,1,3.38-1l315.25,117.1a2.9,2.9,0,0,1,1.49,1.25c.6,1,60.45,104.11,60.45,220.64A2.91,2.91,0,0,1,854.67,494.38Z"/><path class="cls-1" d="M817.15,474.86a3.25,3.25,0,0,1-.44,0,2.91,2.91,0,0,1-2.44-3.3c8.28-55.2-34.53-144.3-39.74-154.86L448.37,200a2.9,2.9,0,0,1,2-5.46L777.59,311.6A2.89,2.89,0,0,1,779.2,313c2,4,49.86,99.1,40.81,159.37A2.89,2.89,0,0,1,817.15,474.86Z"/><path class="cls-1" d="M778.11,453.84h-.25a2.9,2.9,0,0,1-2.64-3.14C783.88,352.48,681.39,333,677,332.2a2.42,2.42,0,0,1-.51-.14L326,200.25C236.57,218,214.9,293.61,214.69,294.37a2.91,2.91,0,0,1-5.61-1.52c.22-.8,22.86-80.31,116.62-98.46a2.79,2.79,0,0,1,1.57.13l351.06,132c6.26,1.24,111.58,23.69,102.67,124.66A2.89,2.89,0,0,1,778.11,453.84Z"/><path class="cls-1" d="M123.89,387.92a3,3,0,0,1-1-.18L46,359.09a2.94,2.94,0,0,1-1.65-1.56c-.42-.95-10.13-23.62-.81-42.59,5.2-10.58,15.22-17.8,29.79-21.44a3,3,0,0,1,1.52,0L151.54,316a2.9,2.9,0,1,1-1.64,5.57L74,299.33c-12.4,3.25-20.88,9.36-25.21,18.14-7.07,14.35-1.26,32.07.46,36.63l75.66,28.2a2.9,2.9,0,0,1-1,5.62Z"/><path class="cls-1" d="M766.73,631.2a2.86,2.86,0,0,1-1.23-.28l-29-13.63L574.09,567.83l-84.44,1.07a2.82,2.82,0,0,1-2.94-2.86,2.9,2.9,0,0,1,2.86-2.94L574.46,562a3.3,3.3,0,0,1,.89.12L738.43,611.8l.39.15L768,625.67a2.9,2.9,0,0,1-1.24,5.53Z"/><path class="cls-1" d="M677.54,437.33h-.28a2.91,2.91,0,0,1-2.62-3.16l6-63.58-13.82-43.36a2.91,2.91,0,0,1,5.54-1.76l14,43.92a3,3,0,0,1,.12,1.15l-6,64.17A2.91,2.91,0,0,1,677.54,437.33Z"/><path class="cls-1" d="M841.72,757.61a3,3,0,0,1-.83-.12L622.66,692.41a2.87,2.87,0,0,1-1.07-.58c-.88-.76-88.05-77.83-30.79-195.51,1.82-4.65,41.16-100.12,174.78-52.62l.34.15L869.5,496.39a2.9,2.9,0,0,1-2.63,5.18L763.45,449.11c-54.08-19.19-100.12-16.77-133.14,7-25,18-34,42.11-34.12,42.35a2.33,2.33,0,0,1-.11.28C542.81,608.09,618.39,681,625,687l217.6,64.88a2.91,2.91,0,0,1-.83,5.69Z"/><path class="cls-1" d="M736.38,641.48h0a2.9,2.9,0,0,1-2.88-2.92c0-2.94,1.1-72.44,44.17-114.13C799,503.8,827,493.72,860.75,494.58c.82.07,59.38,6.95,80.74,71a2.9,2.9,0,1,1-5.5,1.83c-20.15-60.44-75.07-67-75.62-67.09-32-.73-58.53,8.73-78.69,28.24-41.34,40-42.39,109.31-42.4,110A2.9,2.9,0,0,1,736.38,641.48Z"/><path class="cls-1" d="M936.13,572.52a2.9,2.9,0,0,1-1.46-5.41l57.18-33L939,515.66l-23,12.71a2.9,2.9,0,1,1-2.81-5.08L937.33,510a2.89,2.89,0,0,1,2.37-.2l60,21a2.9,2.9,0,0,1,.49,5.25l-62.67,36.12A2.87,2.87,0,0,1,936.13,572.52Z"/><path class="cls-1" d="M948.71,599.23a2.9,2.9,0,0,1-1.24-5.52l48.41-23V533.51a2.91,2.91,0,1,1,5.81,0v39a2.91,2.91,0,0,1-1.66,2.62L950,599A2.92,2.92,0,0,1,948.71,599.23Z"/><path class="cls-1" d="M998.79,564.37a2.91,2.91,0,0,1-.84-5.69l61-18.32V517.19l-58.84,29.42a2.9,2.9,0,1,1-2.6-5.19l63-31.53a2.91,2.91,0,0,1,4.2,2.6v30a2.9,2.9,0,0,1-2.07,2.78l-63.05,18.94A2.71,2.71,0,0,1,998.79,564.37Z"/><path class="cls-1" d="M719.56,437.33a2.85,2.85,0,0,1-1.48-.41,2.89,2.89,0,0,1-1-4l26.06-43.65L742.19,364a2.9,2.9,0,0,1,5.8-.22l1,26.16a2.88,2.88,0,0,1-.41,1.6l-26.51,44.4A2.91,2.91,0,0,1,719.56,437.33Z"/><path class="cls-1" d="M812.28,536.41a2.9,2.9,0,0,1-2.35-1.19l-14.88-20.33L633.22,452.7a2.92,2.92,0,0,1-1.59-1.48L609,403l-26.3-31.06L245.45,241a2.9,2.9,0,1,1,2.1-5.41l338,131.23a2.92,2.92,0,0,1,1.16.83l27,31.93a3,3,0,0,1,.41.64l22.28,47.53,161.54,62.08a2.91,2.91,0,0,1,1.3,1l15.38,21a2.9,2.9,0,0,1-2.33,4.62Z"/><path class="cls-1" d="M833.94,525.6a2.89,2.89,0,0,1-2.48-1.4l-14.83-24.44L676.35,437.08a2.9,2.9,0,1,1,2.37-5.3l141.11,63.05a2.94,2.94,0,0,1,1.3,1.14l15.29,25.22a2.9,2.9,0,0,1-1,4A2.94,2.94,0,0,1,833.94,525.6Z"/><path class="cls-1" d="M777.15,580a2.94,2.94,0,0,1-1.94-.74L757.1,563.08,590.35,504.79a2.92,2.92,0,0,1-.88-.49l-68.39-55.61a2.9,2.9,0,0,1,3.66-4.5l68,55.29,166.82,58.31a2.89,2.89,0,0,1,1,.57l18.55,16.51a2.91,2.91,0,0,1,.23,4.1A2.87,2.87,0,0,1,777.15,580Z"/><path class="cls-1" d="M544.77,653.1a2.91,2.91,0,0,1-1.82-5.17l36.21-29.08a2.9,2.9,0,1,1,3.63,4.52l-36.2,29.09A2.91,2.91,0,0,1,544.77,653.1Z"/><path class="cls-1" d="M579.6,708.26a2.83,2.83,0,0,1-1.42-.38,2.9,2.9,0,0,1-1.1-4l22.75-40.49a2.9,2.9,0,0,1,5.06,2.84l-22.75,40.49A2.91,2.91,0,0,1,579.6,708.26Z"/><path class="cls-1" d="M693.32,681.35a2.91,2.91,0,0,1-1.05-.19l-54.82-21.32a2.91,2.91,0,0,1-.3-5.28L695,624.11a2.93,2.93,0,0,1,2.37-.15l48.73,18.27a2.91,2.91,0,0,1,.55,5.16l-51.77,33.5A2.85,2.85,0,0,1,693.32,681.35Zm-47.83-24.61L693,675.21l45.68-29.56-42.11-15.79Z"/><path class="cls-1" d="M861.21,757.61c-52.82,0-95.8-54.05-95.8-120.48s43-120.48,95.8-120.48S957,570.69,957,637.13,914,757.61,861.21,757.61Zm0-235.16c-49.62,0-90,51.45-90,114.68s40.38,114.67,90,114.67,90-51.44,90-114.67S910.84,522.45,861.21,522.45Z"/><path class="cls-1" d="M875.73,737.29c-42.71,0-77.45-43.63-77.45-97.26s34.74-97.25,77.45-97.25S953.18,586.4,953.18,640,918.44,737.29,875.73,737.29Zm0-188.71c-39.51,0-71.65,41-71.65,91.45s32.14,91.45,71.65,91.45,71.64-41,71.64-91.45S915.23,548.58,875.73,548.58Z"/><path class="cls-1" d="M692.83,705.35a3,3,0,0,1-1.13-.22L636.54,681.9a2.91,2.91,0,0,1-1.77-2.68V658.9a2.9,2.9,0,0,1,5.8,0v18.4l52,21.9,49.59-30.31v-21.6a2.91,2.91,0,0,1,5.81,0v23.22A2.91,2.91,0,0,1,746.6,673l-52.26,31.94A2.89,2.89,0,0,1,692.83,705.35Z"/><path class="cls-1" d="M692.83,705.35a2.9,2.9,0,0,1-2.9-2.9V679.22a2.9,2.9,0,1,1,5.8,0v23.23A2.9,2.9,0,0,1,692.83,705.35Z"/><path class="cls-1" d="M766.73,735.25a2.89,2.89,0,0,1-2.18-1c-25.08-28.49-29.3-57.77-29.47-59a2.91,2.91,0,0,1,5.76-.78c0,.28,4.2,28.84,28.08,55.95a2.9,2.9,0,0,1-2.19,4.82Z"/><path class="cls-1" d="M633.16,730A85.19,85.19,0,0,1,609,726.54c-65.31-19.29-94.9-114.66-66-212.59S648.56,352,713.87,371.33c31.86,9.41,56.22,36.86,68.61,77.29a2.9,2.9,0,1,1-5.55,1.7c-11.8-38.5-34.78-64.58-64.7-73.42C650,358.53,576.56,420.73,548.54,515.59s-.18,187,62.05,205.38c24.43,7.21,51.17,2.33,77.33-14.12a2.9,2.9,0,1,1,3.09,4.92C671.76,723.88,652.13,730,633.16,730Z"/><path class="cls-1" d="M595.83,748.17a95.83,95.83,0,0,1-30.93-5c-73.92-25-103-136.95-64.91-249.46,32.53-96,103.11-163.29,171.65-163.66h0a2.91,2.91,0,0,1,0,5.81c-65,.35-134.94,67.52-166.18,159.72-37.1,109.47-9.61,218.07,61.27,242.09,31.07,10.53,67,3.29,101.14-20.4a2.91,2.91,0,0,1,3.31,4.78C646.3,739.29,620.38,748.17,595.83,748.17Z"/><path class="cls-1" d="M530.25,722.77a3,3,0,0,1-1.25-.28l-66.77-31.94a2.9,2.9,0,1,1,2.5-5.24l66.78,31.94a2.9,2.9,0,0,1-1.26,5.52Z"/><path class="cls-3" d="M978.12,693.61a2.83,2.83,0,0,1-.9-.15L873.73,659.15a17.34,17.34,0,0,1-10.15-24h0l7-14.4a17.66,17.66,0,0,1,21.17-9.07L995.5,644.87a2.86,2.86,0,0,1,1.8,3.75l-16.51,43.15A2.87,2.87,0,0,1,978.12,693.61Zm-109.39-56a11.62,11.62,0,0,0,6.8,16.1l100.89,33.45,14.45-37.76L890,617.1a11.92,11.92,0,0,0-14.28,6.11Z"/><path class="cls-3" d="M973.71,692.14a2.86,2.86,0,0,1-2.47-1.39c-.52-.87-12.67-21.48-4.72-34.72,4.43-7.39,13.93-10.78,28.3-10.06a2.86,2.86,0,1,1-.29,5.72c-12-.59-19.84,1.85-23.1,7.29-5.15,8.57,1.67,23.72,4.73,28.83a2.88,2.88,0,0,1-1,3.93A2.93,2.93,0,0,1,973.71,692.14Z"/><path class="cls-5" d="M104,971.44V892.2H121v79.24Z"/><path class="cls-5" d="M139.06,971.44V892.2h17.59l35.08,46.12a36.75,36.75,0,0,1,3.32,5.49c1.21,2.37,2.47,5.15,3.76,8.37q-.59-3.52-.86-7c-.18-2.31-.27-5.19-.27-8.66V892.2h16.18v79.24H197.24l-36-47a34.5,34.5,0,0,1-3.3-5.49q-1.8-3.54-3.79-8.47.58,3.4.86,6.9t.27,8.8v45.24Z"/><path class="cls-5" d="M261.11,906.6v64.84h-17V906.6H224.74V892.2h55.75v14.4Z"/><path class="cls-5" d="M291.59,971.44V892.2h46.65v14.29H308.53v16.3h29.71v14.39H308.53v19.87h29.71v14.39Z"/><path class="cls-5" d="M412.18,971.44H392.64l-20.84-37v37H354.86V892.2h24.25q14.46,0,21.65,5.61t7.2,16.86a20.83,20.83,0,0,1-4.92,14,19.27,19.27,0,0,1-12.72,6.77ZM371.8,926h2.55q10.27,0,13.58-2.25c2.2-1.49,3.31-4.1,3.31-7.82,0-3.9-1.18-6.66-3.55-8.31s-6.81-2.46-13.34-2.46H371.8Z"/><path class="cls-5" d="M451.64,906.6v64.84h-17V906.6H415.27V892.2H471v14.4Z"/><path class="cls-5" d="M482.11,971.44V892.2h46.66v14.29H499.05v16.3h29.72v14.39H499.05v19.87h29.72v14.39Z"/><path class="cls-5" d="M609.2,912.83a35.38,35.38,0,0,0-10.56-6.74A31.08,31.08,0,0,0,587.06,904q-12.66,0-20.19,7.58t-7.52,20.35q0,12.5,7,19.84t19.06,7.33a33.85,33.85,0,0,0,23.7-9.2L609,967.22A45,45,0,0,1,597.65,972a48.94,48.94,0,0,1-12.48,1.57q-18.95,0-31.1-11.78t-12.15-29.9q0-18.07,12.18-29.83t31.39-11.74a56.55,56.55,0,0,1,12.45,1.35,55,55,0,0,1,11.86,4.17Z"/><path class="cls-5" d="M625,971.44V892.2h17.59l35.08,46.12a35.14,35.14,0,0,1,3.32,5.49c1.21,2.37,2.47,5.15,3.77,8.37q-.6-3.52-.87-7c-.18-2.31-.27-5.19-.27-8.66V892.2h16.18v79.24H683.14l-36-47a34.5,34.5,0,0,1-3.3-5.49Q642,915.43,640,910.5c.4,2.27.68,4.57.87,6.9s.26,5.26.26,8.8v45.24Z"/><path class="cls-5" d="M717.72,971.44V892.2h16.95v79.24Z"/><path class="cls-5" d="M816.56,912.83A35.38,35.38,0,0,0,806,906.09,31.08,31.08,0,0,0,794.42,904q-12.66,0-20.19,7.58t-7.52,20.35q0,12.5,7,19.84t19,7.33a33.86,33.86,0,0,0,23.71-9.2l-.11,17.37A45,45,0,0,1,805,972a48.81,48.81,0,0,1-12.47,1.57q-18.94,0-31.1-11.78t-12.15-29.9q0-18.07,12.18-29.83t31.39-11.74a56.62,56.62,0,0,1,12.45,1.35,55,55,0,0,1,11.86,4.17Z"/><path class="cls-5" d="M913.44,932a41.27,41.27,0,0,1-3.16,16.07,39.48,39.48,0,0,1-9.12,13.32,44.17,44.17,0,0,1-13.91,9,42.28,42.28,0,0,1-30.23.67A43.77,43.77,0,0,1,844.27,964a40.28,40.28,0,0,1-15.43-32,41.2,41.2,0,0,1,3.14-16,39.57,39.57,0,0,1,9.2-13.34,42.85,42.85,0,0,1,46.15-9,43.49,43.49,0,0,1,13.83,9A39.9,39.9,0,0,1,910.3,916,41,41,0,0,1,913.44,932Zm-42.22,26.46A23.2,23.2,0,0,0,889,950.9q7-7.54,7-18.91a26.9,26.9,0,0,0-7.09-19,23.07,23.07,0,0,0-17.7-7.68A23.32,23.32,0,0,0,853.36,913q-7.1,7.66-7.09,19,0,11.47,7,19T871.22,958.45Z"/><path class="cls-5" d="M922.64,961.38l9.42-10.67a14.47,14.47,0,0,0,5.74,6.91,16.22,16.22,0,0,0,8.88,2.51q5.94,0,9.42-2.81a9.28,9.28,0,0,0,3.46-7.58q0-5.62-11.53-11.2-3.74-1.78-5.9-2.93-10.39-5.42-14.4-10.58a19.49,19.49,0,0,1-4-12.31,19.86,19.86,0,0,1,7.77-16.11q7.75-6.3,20.16-6.3a28.31,28.31,0,0,1,12.42,2.52,25.21,25.21,0,0,1,9.23,7.87l-10,9.58a12.29,12.29,0,0,0-4.73-5.17,14.08,14.08,0,0,0-7.12-1.7,12.49,12.49,0,0,0-8.12,2.51,8,8,0,0,0-3.08,6.53q0,6.27,12.23,11.47c1.62.69,2.87,1.23,3.73,1.63q10.08,4.59,14.92,10.39a20,20,0,0,1,4.84,13.2q0,11.16-7.6,17.79t-20.44,6.63a35.59,35.59,0,0,1-15.59-3.14A21.14,21.14,0,0,1,922.64,961.38Z"/><path class="cls-6" d="M95,1038.63v-27.77h13.75v2.37H97.5v8.69h11.23v2.37H97.5v12h11.23v2.37Z"/><path class="cls-6" d="M126.6,1038.63v-27.77h2.52v25.4h9.52v2.37Z"/><path class="cls-6" d="M154.33,1038.63v-27.77h13.75v2.37H156.86v8.69h11.22v2.37H156.86v12h11.22v2.37Z"/><path class="cls-6" d="M208.26,1015.94a15.12,15.12,0,0,0-4.23-2.63,12.23,12.23,0,0,0-4.55-.86,11.73,11.73,0,0,0-8.75,3.42,12.13,12.13,0,0,0-3.37,8.89,14,14,0,0,0,.83,5,11.06,11.06,0,0,0,2.51,3.91,11.46,11.46,0,0,0,3.82,2.54,12.25,12.25,0,0,0,4.62.87,13.87,13.87,0,0,0,4.67-.81,15.58,15.58,0,0,0,4.3-2.41v3a18.22,18.22,0,0,1-4.33,1.92,16,16,0,0,1-4.53.68,15.4,15.4,0,0,1-5.76-1.09,13.68,13.68,0,0,1-4.72-3,13.39,13.39,0,0,1-3.08-4.67,15.85,15.85,0,0,1-1-5.82,15.65,15.65,0,0,1,1.07-5.8,13.41,13.41,0,0,1,3.08-4.65,13.94,13.94,0,0,1,4.72-3,15.59,15.59,0,0,1,5.73-1.08,15.86,15.86,0,0,1,4.92.73,12.93,12.93,0,0,1,4.13,2.19Z"/><path class="cls-6" d="M230.34,1038.63v-25.4H222.7v-2.37h17.83v2.37h-7.66v25.4Z"/><path class="cls-6" d="M273.27,1038.63h-3.08l-9.74-13.24h-1.52v13.24h-2.52v-27.77h5.1q4.51,0,6.76,1.88t2.25,5.69a6.74,6.74,0,0,1-1.93,5.1,7.3,7.3,0,0,1-5.3,1.86Zm-14.34-25.57v10.26h2.54c2.36,0,4-.37,4.92-1.13a4.67,4.67,0,0,0,1.4-3.84c0-1.91-.48-3.26-1.45-4.07s-2.58-1.22-4.87-1.22Z"/><path class="cls-6" d="M288.6,1038.63v-27.77h2.52v27.77Z"/><path class="cls-6" d="M332,1015.94a15.12,15.12,0,0,0-4.23-2.63,12.27,12.27,0,0,0-4.55-.86,11.73,11.73,0,0,0-8.75,3.42,12.09,12.09,0,0,0-3.37,8.89,14,14,0,0,0,.83,5,10.92,10.92,0,0,0,2.51,3.91,11.36,11.36,0,0,0,3.82,2.54,12.25,12.25,0,0,0,4.62.87,13.77,13.77,0,0,0,4.66-.81,15.49,15.49,0,0,0,4.31-2.41v3a18.29,18.29,0,0,1-4.34,1.92,15.89,15.89,0,0,1-4.52.68,15.4,15.4,0,0,1-5.76-1.09,13.82,13.82,0,0,1-4.73-3,13.5,13.5,0,0,1-3.07-4.67,15.85,15.85,0,0,1-1-5.82,15.65,15.65,0,0,1,1.07-5.8,13.27,13.27,0,0,1,3.08-4.65,14,14,0,0,1,4.71-3,15.68,15.68,0,0,1,5.74-1.08,15.86,15.86,0,0,1,4.92.73,12.93,12.93,0,0,1,4.13,2.19Z"/><path class="cls-6" d="M377.6,1024.8a14.17,14.17,0,0,1-1.12,5.59,14.46,14.46,0,0,1-3.23,4.71,14.85,14.85,0,0,1-4.84,3.18,15.37,15.37,0,0,1-11.37,0,14.83,14.83,0,0,1-4.81-3.18,14.58,14.58,0,0,1-3.24-4.73,14.17,14.17,0,0,1-1.11-5.57,14.32,14.32,0,0,1,4.35-10.37,14.12,14.12,0,0,1,4.76-3.13,16,16,0,0,1,11.49,0,14.18,14.18,0,0,1,4.77,3.12,14.32,14.32,0,0,1,4.35,10.37Zm-14.88,12.31a12,12,0,0,0,4.67-.91,12.26,12.26,0,0,0,4-2.66,12.53,12.53,0,0,0,2.65-13.47,12.29,12.29,0,0,0-2.65-4,12,12,0,0,0-3.94-2.66,12.34,12.34,0,0,0-4.7-.91,12.12,12.12,0,0,0-4.65.91,12.3,12.3,0,0,0-6.6,6.67,12.42,12.42,0,0,0,2.66,13.47,11.81,11.81,0,0,0,3.9,2.67A12.13,12.13,0,0,0,362.72,1037.11Z"/><path class="cls-6" d="M392.74,1034l2.17-1.16A5.94,5.94,0,0,0,397,1036a5.77,5.77,0,0,0,3.58,1.13,5.4,5.4,0,0,0,4.11-1.56,6,6,0,0,0,1.48-4.3,5.39,5.39,0,0,0-1-3.34,13.55,13.55,0,0,0-4.27-3.07,19,19,0,0,1-5.58-3.91,6.73,6.73,0,0,1,.62-8.87,7.31,7.31,0,0,1,5.19-1.86,7.18,7.18,0,0,1,3.63.88,6.64,6.64,0,0,1,2.51,2.65l-1.95,1.17a4.27,4.27,0,0,0-1.72-1.82,5.22,5.22,0,0,0-2.63-.63,4.45,4.45,0,0,0-3.26,1.21,4.37,4.37,0,0,0-1.21,3.25c0,2,1.6,3.76,4.82,5.44l1.32.71a13.77,13.77,0,0,1,4.74,3.69,7.72,7.72,0,0,1,1.2,4.5,7.54,7.54,0,0,1-8.12,8.12,8,8,0,0,1-4.67-1.36A8.82,8.82,0,0,1,392.74,1034Z"/><path class="cls-6" d="M448.78,1038.63v-27.77h2.52v27.77Z"/><path class="cls-6" d="M469.92,1038.63v-28.94l19.67,23.23v-22.06h2.35v28.58l-19.65-23.27v22.46Z"/><path class="cls-6" d="M510.55,1038.63v-27.77h4.32a40.59,40.59,0,0,1,8.21.57,10.55,10.55,0,0,1,4.18,2,11.64,11.64,0,0,1,3.52,4.75,18.68,18.68,0,0,1,0,13.28,11.14,11.14,0,0,1-3.48,4.66,11.32,11.32,0,0,1-4.12,2,33.58,33.58,0,0,1-7.45.59h-5.18Zm2.52-2.18h3.55a26.56,26.56,0,0,0,6.1-.49,7.13,7.13,0,0,0,3.06-1.64,10.32,10.32,0,0,0,2.63-4.06,17.81,17.81,0,0,0,0-11.15,9.64,9.64,0,0,0-2.66-4,7.56,7.56,0,0,0-3.24-1.69,30.79,30.79,0,0,0-6.7-.49h-2.73Z"/><path class="cls-6" d="M549.19,1010.86h2.48V1029c0,2.75.63,4.78,1.88,6.12s3.17,2,5.75,2,4.43-.67,5.68-2,1.88-3.37,1.88-6.12v-18.13h2.52v17.32c0,3.75-.83,6.56-2.5,8.41s-4.2,2.78-7.58,2.78-5.94-.93-7.61-2.78-2.5-4.66-2.5-8.41Z"/><path class="cls-6" d="M585.74,1034l2.16-1.16A6,6,0,0,0,590,1036a5.74,5.74,0,0,0,3.57,1.13,5.41,5.41,0,0,0,4.12-1.56,6,6,0,0,0,1.48-4.3,5.39,5.39,0,0,0-1-3.34,13.55,13.55,0,0,0-4.27-3.07,19,19,0,0,1-5.58-3.91,6.73,6.73,0,0,1,.62-8.87,7.3,7.3,0,0,1,5.18-1.86,7.12,7.12,0,0,1,3.63.88,6.59,6.59,0,0,1,2.52,2.65l-1.95,1.17a4.27,4.27,0,0,0-1.72-1.82,5.25,5.25,0,0,0-2.63-.63,4.45,4.45,0,0,0-3.26,1.21,4.37,4.37,0,0,0-1.21,3.25q0,2.93,4.81,5.44l1.33.71a13.87,13.87,0,0,1,4.74,3.69,7.72,7.72,0,0,1,1.2,4.5,8.26,8.26,0,0,1-12.8,6.76A8.81,8.81,0,0,1,585.74,1034Z"/><path class="cls-6" d="M623.83,1038.63v-25.4h-7.64v-2.37H634v2.37h-7.67v25.4Z"/><path class="cls-6" d="M666.76,1038.63h-3.08l-9.74-13.24h-1.52v13.24H649.9v-27.77H655q4.51,0,6.76,1.88t2.25,5.69a6.78,6.78,0,0,1-1.93,5.1,7.3,7.3,0,0,1-5.3,1.86Zm-14.34-25.57v10.26H655c2.35,0,4-.37,4.92-1.13a4.67,4.67,0,0,0,1.4-3.84,5.06,5.06,0,0,0-1.45-4.07q-1.44-1.21-4.87-1.22Z"/><path class="cls-6" d="M682.09,1038.63v-27.77h2.52v27.77Z"/><path class="cls-6" d="M699.43,1038.63l12.19-28.87,11.68,28.87h-2.74l-3.55-9.41H705.67l-3.68,9.41Zm7.09-11.57h9.67L711.45,1015Z"/><path class="cls-6" d="M738.11,1038.63v-27.77h2.52v25.4h9.52v2.37Z"/><path class="cls-6" d="M765.84,1038.63v-27.77H779.6v2.37H768.37v8.69H779.6v2.37H768.37v12H779.6v2.37Z"/><path class="cls-6" d="M795.34,1034l2.16-1.16a6,6,0,0,0,2.1,3.18,5.75,5.75,0,0,0,3.58,1.13,5.4,5.4,0,0,0,4.11-1.56,6,6,0,0,0,1.48-4.3,5.39,5.39,0,0,0-1-3.34,13.55,13.55,0,0,0-4.27-3.07,19,19,0,0,1-5.58-3.91,6.73,6.73,0,0,1,.62-8.87,7.31,7.31,0,0,1,5.19-1.86,7.18,7.18,0,0,1,3.63.88,6.64,6.64,0,0,1,2.51,2.65l-2,1.17a4.27,4.27,0,0,0-1.72-1.82,5.25,5.25,0,0,0-2.63-.63,4.45,4.45,0,0,0-3.26,1.21,4.37,4.37,0,0,0-1.21,3.25c0,2,1.6,3.76,4.82,5.44l1.32.71a13.77,13.77,0,0,1,4.74,3.69,7.72,7.72,0,0,1,1.2,4.5,8.26,8.26,0,0,1-12.8,6.76A8.88,8.88,0,0,1,795.34,1034Z"/><path class="cls-6" d="M851.38,1038.63v-27.77h2.52v25.4h9.52v2.37Z"/><path class="cls-6" d="M881.92,1038.63v-25.4h-7.64v-2.37h17.83v2.37h-7.66v25.4Z"/><path class="cls-6" d="M908,1038.63v-27.77h4.32a40.59,40.59,0,0,1,8.21.57,10.55,10.55,0,0,1,4.18,2,11.64,11.64,0,0,1,3.52,4.75,18.68,18.68,0,0,1,0,13.28,11.14,11.14,0,0,1-3.48,4.66,11.32,11.32,0,0,1-4.12,2,33.58,33.58,0,0,1-7.45.59H908Zm2.52-2.18h3.55a26.56,26.56,0,0,0,6.1-.49,7.13,7.13,0,0,0,3.06-1.64,10.32,10.32,0,0,0,2.63-4.06,17.81,17.81,0,0,0,0-11.15,9.64,9.64,0,0,0-2.66-4,7.56,7.56,0,0,0-3.24-1.69,30.79,30.79,0,0,0-6.7-.49h-2.73Z"/><path class="cls-6" d="M942.27,1038.63l12.19-28.87,11.68,28.87h-2.75l-3.54-9.41H948.51l-3.68,9.41Zm7.09-11.57H959L954.29,1015Z"/><path class="cls-6" d="M981.15,1037a1.91,1.91,0,1,1,.56,1.38A1.87,1.87,0,0,1,981.15,1037Z"/></svg>