<svg id="Capa_1" data-name="Capa 1" xmlns="http://www.w3.org/2000/svg" viewBox="0 0 500 101"><defs><style>.cls-1{fill:#00747f;}.cls-2{fill:#2f4858;}</style></defs><title>prueba</title><path class="cls-1" d="M4.57,53.47V9.73h9.36V53.47Z"/><path class="cls-1" d="M23.9,53.47V9.73h9.71L53,35.18a20,20,0,0,1,1.84,3q1,2,2.08,4.62c-.22-1.29-.38-2.58-.48-3.85s-.15-2.87-.15-4.78V9.73h8.93V53.47H56L36.12,27.53a19.16,19.16,0,0,1-1.82-3c-.66-1.3-1.35-2.86-2.09-4.67.22,1.25.38,2.52.48,3.8s.15,2.91.15,4.86v25Z"/><path class="cls-1" d="M91.28,17.67v35.8H81.9V17.67H71.2V9.73H102v7.94Z"/><path class="cls-1" d="M108.1,53.47V9.73h25.75v7.88h-16.4v9h16.4v7.94h-16.4v11h16.4v7.95Z"/><path class="cls-1" d="M174.66,53.47H163.88L152.37,33V53.47H143V9.73h13.39q8,0,12,3.09t4,9.31a11.5,11.5,0,0,1-2.71,7.7,10.62,10.62,0,0,1-7,3.74Zm-22.29-25.1h1.41q5.67,0,7.5-1.24t1.82-4.32q0-3.22-2-4.58c-1.3-.91-3.76-1.36-7.36-1.36h-1.41Z"/><path class="cls-1" d="M196.44,17.67v35.8h-9.38V17.67H176.37V9.73h30.77v7.94Z"/><path class="cls-1" d="M213.26,53.47V9.73H239v7.88H222.61v9H239v7.94H222.61v11H239v7.95Z"/><path class="cls-1" d="M283.41,21.11a19.7,19.7,0,0,0-5.82-3.72,17.16,17.16,0,0,0-6.39-1.18q-7,0-11.15,4.18T255.9,31.63q0,6.9,3.85,11t10.52,4a18.72,18.72,0,0,0,13.08-5.07l-.06,9.59A24.93,24.93,0,0,1,277,53.77a27.21,27.21,0,0,1-6.89.86q-10.45,0-17.17-6.5a22,22,0,0,1-6.7-16.5A21.91,21.91,0,0,1,253,15.16q6.72-6.48,17.33-6.48a31,31,0,0,1,6.87.75,30.36,30.36,0,0,1,6.54,2.3Z"/><path class="cls-1" d="M292.11,53.47V9.73h9.71l19.36,25.45a20,20,0,0,1,1.84,3c.66,1.31,1.36,2.85,2.07,4.62-.22-1.29-.38-2.58-.48-3.85s-.15-2.87-.15-4.78V9.73h8.94V53.47h-9.17l-19.9-25.94a17.76,17.76,0,0,1-1.82-3q-1-2-2.1-4.67c.22,1.25.38,2.52.48,3.8s.15,2.91.15,4.86v25Z"/><path class="cls-1" d="M343.32,53.47V9.73h9.35V53.47Z"/><path class="cls-1" d="M397.87,21.11a19.7,19.7,0,0,0-5.82-3.72,17.21,17.21,0,0,0-6.4-1.18q-7,0-11.14,4.18t-4.15,11.24q0,6.9,3.85,11t10.52,4a18.72,18.72,0,0,0,13.08-5.07l-.06,9.59a25,25,0,0,1-6.26,2.63,27.08,27.08,0,0,1-6.88.86q-10.46,0-17.17-6.5a22,22,0,0,1-6.7-16.5,21.91,21.91,0,0,1,6.72-16.47q6.72-6.48,17.33-6.48a31,31,0,0,1,6.87.75,30.36,30.36,0,0,1,6.54,2.3Z"/><path class="cls-1" d="M451.35,31.69a22.71,22.71,0,0,1-1.75,8.87,21.66,21.66,0,0,1-5,7.35,24.26,24.26,0,0,1-7.68,5,23.43,23.43,0,0,1-8.84,1.73,23.18,23.18,0,0,1-7.84-1.36,23.82,23.82,0,0,1-7-3.9,22.21,22.21,0,0,1-8.52-17.68,22.62,22.62,0,0,1,1.74-8.86,21.85,21.85,0,0,1,5.08-7.37,23.66,23.66,0,0,1,25.47-5,24.09,24.09,0,0,1,7.63,5,22.14,22.14,0,0,1,5.05,7.38A22.85,22.85,0,0,1,451.35,31.69ZM428.05,46.3a12.8,12.8,0,0,0,9.81-4.17,14.76,14.76,0,0,0,3.87-10.44,14.84,14.84,0,0,0-3.91-10.46A12.74,12.74,0,0,0,428.05,17a12.88,12.88,0,0,0-9.86,4.22,14.84,14.84,0,0,0-3.92,10.48,14.77,14.77,0,0,0,3.86,10.47A12.94,12.94,0,0,0,428.05,46.3Z"/><path class="cls-1" d="M456.43,47.91l5.2-5.89a7.9,7.9,0,0,0,3.17,3.81,8.87,8.87,0,0,0,4.9,1.39,8.06,8.06,0,0,0,5.2-1.55,5.12,5.12,0,0,0,1.91-4.18q0-3.12-6.37-6.19c-1.37-.66-2.46-1.19-3.25-1.61q-5.74-3-7.95-5.84a10.73,10.73,0,0,1-2.21-6.8,11,11,0,0,1,4.29-8.89q4.28-3.48,11.12-3.48a15.61,15.61,0,0,1,6.86,1.39,14.09,14.09,0,0,1,5.1,4.35l-5.53,5.29a6.77,6.77,0,0,0-2.62-2.86,7.78,7.78,0,0,0-3.93-.94,6.86,6.86,0,0,0-4.48,1.39,4.45,4.45,0,0,0-1.7,3.6q0,3.47,6.75,6.34c.9.37,1.59.67,2.06.89a23.1,23.1,0,0,1,8.24,5.74,11.05,11.05,0,0,1,2.67,7.29,12.36,12.36,0,0,1-4.2,9.81q-4.2,3.66-11.28,3.66a19.69,19.69,0,0,1-8.6-1.73A11.65,11.65,0,0,1,456.43,47.91Z"/><path class="cls-2" d="M4.36,90.55V75.22H12v1.31H5.75v4.8H12v1.31H5.75v6.6H12v1.31Z"/><path class="cls-2" d="M21.81,90.55V75.22H23.2v14h5.26v1.31Z"/><path class="cls-2" d="M37.12,90.55V75.22h7.59v1.31h-6.2v4.8h6.2v1.31h-6.2v6.6h6.2v1.31Z"/><path class="cls-2" d="M66.89,78a8.37,8.37,0,0,0-2.34-1.46A6.83,6.83,0,0,0,62,76.1,6.48,6.48,0,0,0,57.21,78a6.67,6.67,0,0,0-1.86,4.91,7.59,7.59,0,0,0,.46,2.73,6,6,0,0,0,1.38,2.16,6.43,6.43,0,0,0,2.11,1.4,6.73,6.73,0,0,0,2.55.48,7.62,7.62,0,0,0,2.58-.45,8.34,8.34,0,0,0,2.37-1.33v1.63a10,10,0,0,1-2.39,1.07,9.07,9.07,0,0,1-2.5.37,8.56,8.56,0,0,1-3.18-.6,7.69,7.69,0,0,1-2.61-1.67,7.41,7.41,0,0,1-1.69-2.58,8.6,8.6,0,0,1-.58-3.21,8.72,8.72,0,0,1,.59-3.21,7.25,7.25,0,0,1,1.71-2.56,7.32,7.32,0,0,1,2.6-1.65,8.53,8.53,0,0,1,3.16-.6,8.77,8.77,0,0,1,2.72.4,7.36,7.36,0,0,1,2.28,1.21Z"/><path class="cls-2" d="M79.07,90.55v-14H74.86V75.22H84.7v1.31H80.47v14Z"/><path class="cls-2" d="M102.77,90.55h-1.7l-5.38-7.31h-.83v7.31h-1.4V75.22h2.82a5.72,5.72,0,0,1,3.73,1,3.85,3.85,0,0,1,1.24,3.14,3.75,3.75,0,0,1-1.06,2.82,4.07,4.07,0,0,1-2.93,1ZM94.86,76.44V82.1h1.4A4.44,4.44,0,0,0,99,81.48a2.56,2.56,0,0,0,.77-2.12A2.81,2.81,0,0,0,99,77.11a4.19,4.19,0,0,0-2.69-.67Z"/><path class="cls-2" d="M111.23,90.55V75.22h1.39V90.55Z"/><path class="cls-2" d="M135.21,78a8.33,8.33,0,0,0-2.33-1.46,6.92,6.92,0,0,0-2.52-.47A6.48,6.48,0,0,0,125.53,78a6.67,6.67,0,0,0-1.86,4.91,7.81,7.81,0,0,0,.46,2.73,6.07,6.07,0,0,0,1.39,2.16,6.23,6.23,0,0,0,2.11,1.4,6.71,6.71,0,0,0,2.54.48,7.62,7.62,0,0,0,2.58-.45,8.39,8.39,0,0,0,2.38-1.33v1.63a10.3,10.3,0,0,1-2.4,1.07,9.05,9.05,0,0,1-2.49.37,8.65,8.65,0,0,1-3.19-.6,7.55,7.55,0,0,1-2.6-1.67,7.44,7.44,0,0,1-1.7-2.58,8.81,8.81,0,0,1-.57-3.21,8.52,8.52,0,0,1,.59-3.21,7.22,7.22,0,0,1,1.7-2.56,7.5,7.5,0,0,1,2.6-1.65,8.58,8.58,0,0,1,3.17-.6,8.75,8.75,0,0,1,2.71.4,7.14,7.14,0,0,1,2.28,1.21Z"/><path class="cls-2" d="M160.36,82.92a7.85,7.85,0,0,1-.62,3.08A7.93,7.93,0,0,1,158,88.6a8.21,8.21,0,0,1-2.67,1.76,8.52,8.52,0,0,1-6.28,0,8.17,8.17,0,0,1-2.66-1.76A8,8,0,0,1,144.57,86a7.8,7.8,0,0,1-.62-3.07,8,8,0,0,1,.62-3.11,8.18,8.18,0,0,1,1.78-2.62A7.83,7.83,0,0,1,149,75.47a8.35,8.35,0,0,1,3.17-.59,8.51,8.51,0,0,1,3.17.59A7.93,7.93,0,0,1,158,77.19a7.87,7.87,0,0,1,2.4,5.73Zm-8.21,6.79a6.76,6.76,0,0,0,2.57-.5,6.6,6.6,0,0,0,2.19-1.47,6.5,6.5,0,0,0,1.46-2.21,6.82,6.82,0,0,0,.51-2.61,6.93,6.93,0,0,0-.5-2.61,7,7,0,0,0-1.47-2.22,6.44,6.44,0,0,0-2.17-1.46,6.65,6.65,0,0,0-2.59-.51,6.51,6.51,0,0,0-2.57.51,6.79,6.79,0,0,0-2.18,1.46,7.16,7.16,0,0,0-1.47,2.22,6.85,6.85,0,0,0-.5,2.61,6.72,6.72,0,0,0,2,4.82,6.4,6.4,0,0,0,4.75,2Z"/><path class="cls-2" d="M168.72,88l1.19-.63a3.29,3.29,0,0,0,1.16,1.75,3.11,3.11,0,0,0,2,.62,3,3,0,0,0,2.27-.86,3.27,3.27,0,0,0,.82-2.37,3,3,0,0,0-.55-1.84,7.41,7.41,0,0,0-2.36-1.7,10.71,10.71,0,0,1-3.08-2.16,3.4,3.4,0,0,1-.76-2.24,3.46,3.46,0,0,1,1.1-2.66,4.49,4.49,0,0,1,4.87-.54,3.73,3.73,0,0,1,1.39,1.47l-1.08.64a2.36,2.36,0,0,0-.95-1,2.91,2.91,0,0,0-1.45-.35,2.47,2.47,0,0,0-1.8.67,2.39,2.39,0,0,0-.67,1.79c0,1.08.89,2.08,2.66,3l.73.39a7.55,7.55,0,0,1,2.62,2,4.31,4.31,0,0,1,.66,2.49A4.17,4.17,0,0,1,173,91a4.37,4.37,0,0,1-2.58-.75A4.79,4.79,0,0,1,168.72,88Z"/><path class="cls-2" d="M199.65,90.55V75.22H201V90.55Z"/><path class="cls-2" d="M211.32,90.55v-16L222.17,87.4V75.22h1.3V91L212.62,78.16V90.55Z"/><path class="cls-2" d="M233.74,90.55V75.22h2.39a22.27,22.27,0,0,1,4.53.32A5.81,5.81,0,0,1,243,76.62a6.38,6.38,0,0,1,1.94,2.61,10.39,10.39,0,0,1,0,7.34A6.1,6.1,0,0,1,243,89.14a6.29,6.29,0,0,1-2.27,1.09,19.08,19.08,0,0,1-4.12.32h-2.86Zm1.4-1.2h2a14.45,14.45,0,0,0,3.37-.27,3.9,3.9,0,0,0,1.69-.91,5.58,5.58,0,0,0,1.45-2.24,8.75,8.75,0,0,0,.5-3.05,8.88,8.88,0,0,0-.5-3.1,5.27,5.27,0,0,0-1.47-2.2,4.2,4.2,0,0,0-1.79-.93,17.19,17.19,0,0,0-3.7-.27h-1.5Z"/><path class="cls-2" d="M255.07,75.22h1.37v10a4.8,4.8,0,0,0,1,3.38,4.18,4.18,0,0,0,3.17,1.1,4.13,4.13,0,0,0,3.14-1.1,4.8,4.8,0,0,0,1-3.38v-10h1.39v9.56a6.75,6.75,0,0,1-1.38,4.64,6.48,6.48,0,0,1-8.39,0,6.75,6.75,0,0,1-1.38-4.64Z"/><path class="cls-2" d="M275.25,88l1.19-.63a3.29,3.29,0,0,0,1.16,1.75,3.13,3.13,0,0,0,2,.62,3,3,0,0,0,2.27-.86,3.27,3.27,0,0,0,.82-2.37,2.94,2.94,0,0,0-.55-1.84,7.41,7.41,0,0,0-2.36-1.7,10.71,10.71,0,0,1-3.08-2.16,3.4,3.4,0,0,1-.76-2.24,3.49,3.49,0,0,1,1.1-2.66,4.49,4.49,0,0,1,4.87-.54,3.73,3.73,0,0,1,1.39,1.47l-1.08.64a2.3,2.3,0,0,0-.95-1,2.91,2.91,0,0,0-1.45-.35,2.47,2.47,0,0,0-1.8.67,2.39,2.39,0,0,0-.67,1.79c0,1.08.89,2.08,2.66,3l.73.39a7.55,7.55,0,0,1,2.62,2,4.31,4.31,0,0,1,.66,2.49A4.17,4.17,0,0,1,279.51,91a4.37,4.37,0,0,1-2.58-.75A4.79,4.79,0,0,1,275.25,88Z"/><path class="cls-2" d="M296.27,90.55v-14h-4.22V75.22h9.85v1.31h-4.23v14Z"/><path class="cls-2" d="M320,90.55h-1.7l-5.38-7.31h-.84v7.31h-1.39V75.22h2.82a5.72,5.72,0,0,1,3.73,1,3.85,3.85,0,0,1,1.24,3.14,3.79,3.79,0,0,1-1.06,2.82,4.07,4.07,0,0,1-2.93,1Zm-7.92-14.11V82.1h1.41a4.46,4.46,0,0,0,2.71-.62,2.56,2.56,0,0,0,.77-2.12,2.81,2.81,0,0,0-.79-2.25,4.19,4.19,0,0,0-2.69-.67Z"/><path class="cls-2" d="M328.43,90.55V75.22h1.39V90.55Z"/><path class="cls-2" d="M338,90.55l6.73-15.93,6.45,15.93h-1.52l-2-5.19h-6.26l-2,5.19Zm3.92-6.39h5.34l-2.62-6.66Z"/><path class="cls-2" d="M359.35,90.55V75.22h1.39v14H366v1.31Z"/><path class="cls-2" d="M374.66,90.55V75.22h7.59v1.31h-6.19v4.8h6.19v1.31h-6.19v6.6h6.19v1.31Z"/><path class="cls-2" d="M390.94,88l1.2-.63a3.29,3.29,0,0,0,1.16,1.75,3.11,3.11,0,0,0,2,.62,3,3,0,0,0,2.27-.86,3.31,3.31,0,0,0,.82-2.37,3,3,0,0,0-.55-1.84,7.53,7.53,0,0,0-2.36-1.7,10.57,10.57,0,0,1-3.08-2.16,3.4,3.4,0,0,1-.77-2.24,3.46,3.46,0,0,1,1.11-2.66,4.49,4.49,0,0,1,4.87-.54A3.64,3.64,0,0,1,399,76.81l-1.07.64a2.36,2.36,0,0,0-.95-1,2.91,2.91,0,0,0-1.45-.35,2.44,2.44,0,0,0-1.8.67,2.39,2.39,0,0,0-.67,1.79c0,1.08.88,2.08,2.66,3l.73.39A7.65,7.65,0,0,1,399,84a4.31,4.31,0,0,1,.66,2.49,4.56,4.56,0,0,1-7.07,3.73A4.92,4.92,0,0,1,390.94,88Z"/><path class="cls-2" d="M421.88,90.55V75.22h1.39v14h5.25v1.31Z"/><path class="cls-2" d="M438.74,90.55v-14h-4.22V75.22h9.84v1.31h-4.23v14Z"/><path class="cls-2" d="M453.12,90.55V75.22h2.39a22.27,22.27,0,0,1,4.53.32,5.81,5.81,0,0,1,2.31,1.08,6.38,6.38,0,0,1,1.94,2.61,10.39,10.39,0,0,1,0,7.34,6.1,6.1,0,0,1-1.92,2.57,6.29,6.29,0,0,1-2.27,1.09,19.08,19.08,0,0,1-4.12.32h-2.86Zm1.4-1.2h2a14.45,14.45,0,0,0,3.37-.27,3.9,3.9,0,0,0,1.69-.91A5.58,5.58,0,0,0,463,85.93a8.75,8.75,0,0,0,.5-3.05,8.88,8.88,0,0,0-.5-3.1,5.27,5.27,0,0,0-1.47-2.2,4.2,4.2,0,0,0-1.79-.93,17.19,17.19,0,0,0-3.7-.27h-1.5Z"/><path class="cls-2" d="M472,90.55l6.74-15.93,6.44,15.93h-1.51l-2-5.19h-6.26l-2,5.19ZM476,84.16h5.34l-2.62-6.66Z"/><path class="cls-2" d="M493.51,89.67a1,1,0,0,1,.31-.76,1,1,0,0,1,.76-.31,1.08,1.08,0,0,1,.76,1.83,1,1,0,0,1-.76.31,1,1,0,0,1-.76-.31A1,1,0,0,1,493.51,89.67Z"/></svg>