<svg id="Capa_1" data-name="Capa 1" xmlns="http://www.w3.org/2000/svg" viewBox="0 0 1080 222"><defs><style>.cls-1{fill:#009e5d;}</style></defs><title>LOGO</title><path class="cls-1" d="M15.89,122.74V29.34h20v93.4Z"/><path class="cls-1" d="M57.16,122.74V29.34H77.9L119.25,83.7a43.43,43.43,0,0,1,3.92,6.47q2.13,4.18,4.43,9.86c-.47-2.76-.8-5.51-1-8.23s-.32-6.13-.32-10.21V29.34h19.08v93.4H125.75L83.26,67.36a40.46,40.46,0,0,1-3.89-6.47q-2.12-4.19-4.47-10,.7,4,1,8.14c.21,2.74.32,6.2.32,10.36v53.34Z"/><path class="cls-1" d="M201,46.31v76.43H181V46.31H158.17v-17h65.71v17Z"/><path class="cls-1" d="M237,122.74V29.34h55V46.18h-35v19.2h35v17h-35v23.41h35v17Z"/><path class="cls-1" d="M379.12,122.74h-23L331.52,79.1v43.64h-20V29.34h28.58q17,0,25.52,6.6t8.49,19.87a24.64,24.64,0,0,1-5.8,16.47,22.71,22.71,0,0,1-15,8Zm-47.6-53.59h3q12.12,0,16-2.65t3.9-9.22q0-6.89-4.18-9.79t-15.73-2.91h-3Z"/><path class="cls-1" d="M425.63,46.31v76.43h-20V46.31H382.75v-17h65.72v17Z"/><path class="cls-1" d="M461.55,122.74V29.34h55V46.18h-35v19.2h35v17h-35v23.41h35v17Z"/><path class="cls-1" d="M611.36,53.65a41.73,41.73,0,0,0-12.45-7.95,36.79,36.79,0,0,0-13.65-2.52q-14.93,0-23.8,8.93t-8.87,24q0,14.75,8.24,23.39t22.45,8.64a39.95,39.95,0,0,0,28-10.84l-.13,20.48a52.67,52.67,0,0,1-13.36,5.61A57.45,57.45,0,0,1,583,125.23q-22.34,0-36.66-13.87T532.05,76.1q0-21.3,14.36-35.15t37-13.85a66.75,66.75,0,0,1,14.67,1.6,65.07,65.07,0,0,1,14,4.91Z"/><path class="cls-1" d="M629.93,122.74V29.34h20.73L692,83.7a41.79,41.79,0,0,1,3.92,6.47q2.13,4.18,4.43,9.86c-.47-2.76-.8-5.51-1-8.23S699,85.67,699,81.59V29.34H718.1v93.4H698.51L656,67.36a40.46,40.46,0,0,1-3.89-6.47c-1.41-2.79-2.89-6.12-4.47-10q.71,4,1,8.14c.21,2.74.32,6.2.32,10.36v53.34Z"/><path class="cls-1" d="M739.28,122.74V29.34h20v93.4Z"/><path class="cls-1" d="M855.79,53.65a41.82,41.82,0,0,0-12.44-7.95,36.88,36.88,0,0,0-13.66-2.52q-14.93,0-23.8,8.93T797,76.1q0,14.75,8.24,23.39t22.46,8.64a41,41,0,0,0,15-2.71,41.4,41.4,0,0,0,12.89-8.13l-.13,20.48a52.67,52.67,0,0,1-13.36,5.61,57.4,57.4,0,0,1-14.71,1.85q-22.34,0-36.65-13.87T776.48,76.1q0-21.3,14.36-35.15t37-13.85a66.91,66.91,0,0,1,14.68,1.6,65.18,65.18,0,0,1,14,4.91Z"/><path class="cls-1" d="M970,76.23a48.6,48.6,0,0,1-3.73,19,46.45,46.45,0,0,1-10.75,15.7,51.66,51.66,0,0,1-16.4,10.65,49.93,49.93,0,0,1-35.63.8,51.75,51.75,0,0,1-15-8.33,47.47,47.47,0,0,1-18.18-37.77A48.47,48.47,0,0,1,874,57.31a46.68,46.68,0,0,1,10.84-15.72A50.51,50.51,0,0,1,939.21,31a51.08,51.08,0,0,1,16.3,10.6,47.09,47.09,0,0,1,10.78,15.76A48.45,48.45,0,0,1,970,76.23Zm-49.76,31.2a27.38,27.38,0,0,0,21-8.9q8.26-8.9,8.26-22.3T941.09,53.9a28.81,28.81,0,0,0-41.92,0q-8.35,9-8.36,22.36,0,13.53,8.24,22.36T920.23,107.43Z"/><path class="cls-1" d="M980.84,110.88l11.1-12.57a17,17,0,0,0,6.77,8.13,19,19,0,0,0,10.46,3q7,0,11.1-3.32a10.91,10.91,0,0,0,4.08-8.93q0-6.64-13.59-13.21-4.39-2.1-7-3.44-12.25-6.39-17-12.48a23,23,0,0,1-4.72-14.51,23.38,23.38,0,0,1,9.15-19q9.15-7.44,23.77-7.44a33.4,33.4,0,0,1,14.64,3,29.78,29.78,0,0,1,10.88,9.28l-11.81,11.3a14.43,14.43,0,0,0-5.58-6.1,16.49,16.49,0,0,0-8.39-2,14.68,14.68,0,0,0-9.57,3,9.47,9.47,0,0,0-3.63,7.69q0,7.39,14.42,13.52,2.87,1.22,4.4,1.92,11.86,5.42,17.58,12.25a23.62,23.62,0,0,1,5.71,15.57q0,13.14-9,21t-24.09,7.81q-10.71,0-18.37-3.7A24.86,24.86,0,0,1,980.84,110.88Z"/><path class="cls-1" d="M15.42,201.94V169.21H31.63V172H18.39v10.24H31.63V185H18.39v14.11H31.63v2.8Z"/><path class="cls-1" d="M52.69,201.94V169.21h3v29.93H66.89v2.8Z"/><path class="cls-1" d="M85.39,201.94V169.21h16.2V172H88.36v10.24h13.23V185H88.36v14.11h13.23v2.8Z"/><path class="cls-1" d="M149,175.2a17.47,17.47,0,0,0-5-3.11,14.52,14.52,0,0,0-5.37-1,13.88,13.88,0,0,0-10.32,4,14.3,14.3,0,0,0-4,10.48,16.48,16.48,0,0,0,1,5.84,13,13,0,0,0,3,4.6,13.35,13.35,0,0,0,4.51,3,14.24,14.24,0,0,0,5.44,1,16.21,16.21,0,0,0,5.5-1,18.17,18.17,0,0,0,5.08-2.84v3.48a21.21,21.21,0,0,1-5.11,2.27,18.83,18.83,0,0,1-5.33.8,18.38,18.38,0,0,1-6.8-1.28A16.35,16.35,0,0,1,126,198a15.91,15.91,0,0,1-3.62-5.5,18.65,18.65,0,0,1-1.23-6.87,18.4,18.4,0,0,1,1.26-6.84,15.66,15.66,0,0,1,3.64-5.47,16.2,16.2,0,0,1,5.55-3.54,18.62,18.62,0,0,1,6.77-1.27,18.89,18.89,0,0,1,5.79.86,15.51,15.51,0,0,1,4.87,2.58Z"/><path class="cls-1" d="M175,201.94V172h-9v-2.79h21V172h-9v29.94Z"/><path class="cls-1" d="M225.58,201.94H222l-11.49-15.61h-1.79v15.61h-3V169.21h6c3.55,0,6.2.74,8,2.21s2.65,3.71,2.65,6.71a8,8,0,0,1-2.27,6,8.61,8.61,0,0,1-6.25,2.19Zm-16.9-30.14v12.1h3c2.77,0,4.7-.45,5.8-1.33s1.64-2.4,1.64-4.53-.57-3.85-1.7-4.81-3-1.43-5.74-1.43Z"/><path class="cls-1" d="M243.66,201.94V169.21h3v32.73Z"/><path class="cls-1" d="M294.86,175.2a17.47,17.47,0,0,0-5-3.11,14.52,14.52,0,0,0-5.37-1,13.88,13.88,0,0,0-10.32,4,14.3,14.3,0,0,0-4,10.48,16.48,16.48,0,0,0,1,5.84,12.89,12.89,0,0,0,3,4.6,13.4,13.4,0,0,0,4.5,3,14.32,14.32,0,0,0,5.45,1,16.21,16.21,0,0,0,5.5-1,18,18,0,0,0,5.07-2.84v3.48a21,21,0,0,1-5.11,2.27,18.73,18.73,0,0,1-5.33.8,18.46,18.46,0,0,1-6.8-1.28,16.3,16.3,0,0,1-5.56-3.57,15.77,15.77,0,0,1-3.62-5.5,18.65,18.65,0,0,1-1.23-6.87,18.4,18.4,0,0,1,1.26-6.84,15.5,15.5,0,0,1,3.63-5.47,16.34,16.34,0,0,1,5.56-3.54,18.56,18.56,0,0,1,6.76-1.27,18.91,18.91,0,0,1,5.8.86,15.62,15.62,0,0,1,4.87,2.58Z"/><path class="cls-1" d="M348.57,185.64a16.7,16.7,0,0,1-1.32,6.58,17,17,0,0,1-3.81,5.56,17.35,17.35,0,0,1-5.7,3.74,18.07,18.07,0,0,1-13.41,0,17.22,17.22,0,0,1-5.67-3.74,17.53,17.53,0,0,1-3.82-5.58,16.7,16.7,0,0,1-1.31-6.56,17,17,0,0,1,1.31-6.63,17.28,17.28,0,0,1,3.82-5.6,16.79,16.79,0,0,1,5.61-3.69,18.91,18.91,0,0,1,13.55,0,16.85,16.85,0,0,1,5.62,3.68,16.89,16.89,0,0,1,5.13,12.23ZM331,200.15a14.16,14.16,0,0,0,5.5-1.08,14.3,14.3,0,0,0,4.68-3.13,14.66,14.66,0,0,0,0-20.61,14.14,14.14,0,0,0-4.64-3.13,14.54,14.54,0,0,0-5.54-1.07,14.16,14.16,0,0,0-5.48,1.07,14.65,14.65,0,0,0-4.66,3.13,15.17,15.17,0,0,0-3.13,4.73,14.64,14.64,0,0,0,3.13,15.88,14.14,14.14,0,0,0,4.61,3.15A14.37,14.37,0,0,0,331,200.15Z"/><path class="cls-1" d="M366.42,196.44l2.55-1.37a7,7,0,0,0,2.47,3.75,6.78,6.78,0,0,0,4.21,1.33,6.35,6.35,0,0,0,4.85-1.84,7.06,7.06,0,0,0,1.75-5.07,6.37,6.37,0,0,0-1.18-3.93c-.78-1.05-2.46-2.25-5-3.63-3.29-1.74-5.49-3.27-6.57-4.6a7.3,7.3,0,0,1-1.63-4.79,7.39,7.39,0,0,1,2.35-5.67,8.65,8.65,0,0,1,6.12-2.2,8.41,8.41,0,0,1,4.28,1.05,7.81,7.81,0,0,1,3,3.11l-2.3,1.39a5,5,0,0,0-2-2.15,6.2,6.2,0,0,0-3.09-.74,5.27,5.27,0,0,0-3.85,1.42,5.19,5.19,0,0,0-1.43,3.84q0,3.43,5.68,6.42c.69.35,1.21.63,1.57.82q4.17,2.31,5.59,4.35a9.23,9.23,0,0,1,1.4,5.31,9.73,9.73,0,0,1-15.08,8A10.48,10.48,0,0,1,366.42,196.44Z"/><path class="cls-1" d="M432.47,201.94V169.21h3v32.73Z"/><path class="cls-1" d="M457.39,201.94V167.82l23.18,27.39v-26h2.77V202.9l-23.16-27.43v26.47Z"/><path class="cls-1" d="M505.28,201.94V169.21h5.1a47.84,47.84,0,0,1,9.68.67,12.17,12.17,0,0,1,4.92,2.3,13.87,13.87,0,0,1,4.16,5.59,22.15,22.15,0,0,1,0,15.66,12.86,12.86,0,0,1-9,7.81,39.45,39.45,0,0,1-8.78.7h-6.11Zm3-2.57h4.18a32,32,0,0,0,7.2-.57,8.6,8.6,0,0,0,3.6-1.94,12.3,12.3,0,0,0,3.1-4.78,21,21,0,0,0,0-13.15,11.43,11.43,0,0,0-3.14-4.69,9,9,0,0,0-3.82-2,36.18,36.18,0,0,0-7.89-.58h-3.22Z"/><path class="cls-1" d="M550.83,169.21h2.93v21.37c0,3.23.74,5.64,2.21,7.21s3.74,2.36,6.78,2.36,5.23-.79,6.7-2.36,2.22-4,2.22-7.21V169.21h3v20.41q0,6.65-2.95,9.91t-8.94,3.28c-4,0-7-1.09-9-3.28s-2.95-5.48-2.95-9.91Z"/><path class="cls-1" d="M593.92,196.44l2.55-1.37a7,7,0,0,0,2.47,3.75,6.8,6.8,0,0,0,4.21,1.33,6.35,6.35,0,0,0,4.85-1.84,7,7,0,0,0,1.75-5.07,6.37,6.37,0,0,0-1.18-3.93c-.78-1.05-2.46-2.25-5-3.63q-4.93-2.61-6.57-4.6a7.3,7.3,0,0,1-1.63-4.79,7.39,7.39,0,0,1,2.35-5.67,8.67,8.67,0,0,1,6.12-2.2,8.41,8.41,0,0,1,4.28,1.05,7.74,7.74,0,0,1,3,3.11l-2.3,1.39a5,5,0,0,0-2-2.15,6.26,6.26,0,0,0-3.1-.74,5.23,5.23,0,0,0-3.84,1.42,5.15,5.15,0,0,0-1.43,3.84q0,3.43,5.67,6.42c.69.35,1.21.63,1.57.82q4.18,2.31,5.59,4.35a9.15,9.15,0,0,1,1.41,5.31,8.9,8.9,0,0,1-9.57,9.57,9.35,9.35,0,0,1-5.51-1.6A10.42,10.42,0,0,1,593.92,196.44Z"/><path class="cls-1" d="M638.82,201.94V172h-9v-2.79h21V172h-9v29.94Z"/><path class="cls-1" d="M689.42,201.94h-3.63l-11.48-15.61h-1.79v15.61h-3V169.21h6q5.31,0,8,2.21c1.76,1.48,2.65,3.71,2.65,6.71a8,8,0,0,1-2.27,6,8.64,8.64,0,0,1-6.25,2.19Zm-16.9-30.14v12.1h3c2.78,0,4.71-.45,5.8-1.33S683,180.17,683,178s-.57-3.85-1.7-4.81-3-1.43-5.75-1.43Z"/><path class="cls-1" d="M707.49,201.94V169.21h3v32.73Z"/><path class="cls-1" d="M727.93,201.94l14.38-34,13.77,34h-3.24l-4.19-11.09H735.29L731,201.94Zm8.36-13.64h11.4l-5.58-14.24Z"/><path class="cls-1" d="M773.53,201.94V169.21h3v29.93h11.22v2.8Z"/><path class="cls-1" d="M806.22,201.94V169.21h16.21V172H809.2v10.24h13.23V185H809.2v14.11h13.23v2.8Z"/><path class="cls-1" d="M841,196.44l2.55-1.37a7.09,7.09,0,0,0,2.47,3.75,6.83,6.83,0,0,0,4.22,1.33,6.36,6.36,0,0,0,4.85-1.84,7.06,7.06,0,0,0,1.74-5.07,6.37,6.37,0,0,0-1.17-3.93,16.15,16.15,0,0,0-5-3.63q-5-2.61-6.58-4.6a7.93,7.93,0,0,1,.73-10.46,8.63,8.63,0,0,1,6.11-2.2,8.41,8.41,0,0,1,4.28,1.05,7.76,7.76,0,0,1,3,3.11l-2.3,1.39a5,5,0,0,0-2-2.15,6.2,6.2,0,0,0-3.09-.74,5.25,5.25,0,0,0-3.85,1.42,5.19,5.19,0,0,0-1.43,3.84q0,3.43,5.68,6.42l1.56.82q4.19,2.31,5.59,4.35a9.15,9.15,0,0,1,1.41,5.31,8.89,8.89,0,0,1-9.57,9.57,9.37,9.37,0,0,1-5.51-1.6A10.49,10.49,0,0,1,841,196.44Z"/><path class="cls-1" d="M907.05,201.94V169.21h3v29.93h11.23v2.8Z"/><path class="cls-1" d="M943.05,201.94V172h-9v-2.79h21V172h-9v29.94Z"/><path class="cls-1" d="M973.78,201.94V169.21h5.1a47.72,47.72,0,0,1,9.67.67,12.17,12.17,0,0,1,4.92,2.3,13.78,13.78,0,0,1,4.16,5.59,22.15,22.15,0,0,1,0,15.66,13,13,0,0,1-4.11,5.49,13.22,13.22,0,0,1-4.85,2.32,39.56,39.56,0,0,1-8.79.7h-6.1Zm3-2.57h4.18a31.93,31.93,0,0,0,7.2-.57,8.48,8.48,0,0,0,3.6-1.94,12.21,12.21,0,0,0,3.11-4.78,18.91,18.91,0,0,0,1-6.53,19.15,19.15,0,0,0-1.06-6.62,11.52,11.52,0,0,0-3.14-4.69,9,9,0,0,0-3.83-2,36.05,36.05,0,0,0-7.89-.58h-3.22Z"/><path class="cls-1" d="M1014.18,201.94l14.38-34,13.77,34h-3.24l-4.18-11.09h-13.37l-4.34,11.09Zm8.37-13.64h11.39l-5.58-14.24Z"/><path class="cls-1" d="M1060,200.06a2.25,2.25,0,1,1,.66,1.62A2.2,2.2,0,0,1,1060,200.06Z"/></svg>