<?xml version="1.0" encoding="UTF-8"?>
<svg width="64px" height="56px" viewBox="0 0 64 56" version="1.1" xmlns="http://www.w3.org/2000/svg" xmlns:xlink="http://www.w3.org/1999/xlink">
    <!-- Generator: Sketch 47.1 (45422) - http://www.bohemiancoding.com/sketch -->
    <title>2-large</title>
    <desc>Created with Sketch.</desc>
    <defs></defs>
    <g id="Page-1" stroke="none" stroke-width="1" fill="none" fill-rule="evenodd">
        <g id="2-large" fill="#323937">
            <polygon id="Fill-432" points="37 54 39 54 39 45 37 45"></polygon>
            <polygon id="Fill-433" points="41 54 43 54 43 42 41 42"></polygon>
            <path d="M60,43 L47,43 L47,41 L57.586,41 L50.293,33.707 C50.007,33.421 49.921,32.991 50.076,32.617 C50.23,32.243 50.596,32 51,32 L56.586,32 L48.293,23.707 C48.007,23.421 47.921,22.991 48.076,22.617 C48.23,22.243 48.596,22 49,22 L53.586,22 L46.293,14.707 C46.007,14.421 45.921,13.991 46.076,13.617 C46.23,13.243 46.596,13 47,13 L50.586,13 L40,2.414 L35.707,6.707 L34.293,5.293 L39.293,0.293 C39.684,-0.098 40.316,-0.098 40.707,0.293 L53.707,13.293 C53.993,13.579 54.079,14.009 53.924,14.383 C53.77,14.757 53.404,15 53,15 L49.414,15 L56.707,22.293 C56.993,22.579 57.079,23.009 56.924,23.383 C56.77,23.757 56.404,24 56,24 L51.414,24 L59.707,32.293 C59.993,32.579 60.079,33.009 59.924,33.383 C59.77,33.757 59.404,34 59,34 L53.414,34 L60.707,41.293 C60.993,41.579 61.079,42.009 60.924,42.383 C60.77,42.757 60.404,43 60,43" id="Fill-434"></path>
            <polygon id="Fill-435" points="21 54 23 54 23 45 21 45"></polygon>
            <polygon id="Fill-436" points="25 54 27 54 27 42 25 42"></polygon>
            <path d="M6.414,41 L41.586,41 L34.293,33.707 C34.007,33.421 33.921,32.991 34.076,32.617 C34.23,32.243 34.596,32 35,32 L40.586,32 L32.293,23.707 C32.007,23.421 31.921,22.991 32.076,22.617 C32.23,22.243 32.596,22 33,22 L37.586,22 L30.293,14.707 C30.007,14.421 29.921,13.991 30.076,13.617 C30.23,13.243 30.596,13 31,13 L34.586,13 L24,2.414 L13.414,13 L17,13 C17.404,13 17.77,13.243 17.924,13.617 C18.079,13.991 17.993,14.421 17.707,14.707 L10.414,22 L15,22 C15.404,22 15.77,22.243 15.924,22.617 C16.079,22.991 15.993,23.421 15.707,23.707 L7.414,32 L13,32 C13.404,32 13.77,32.243 13.924,32.617 C14.079,32.991 13.993,33.421 13.707,33.707 L6.414,41 Z M44,43 L4,43 C3.596,43 3.23,42.757 3.076,42.383 C2.921,42.009 3.007,41.579 3.293,41.293 L10.586,34 L5,34 C4.596,34 4.23,33.757 4.076,33.383 C3.921,33.009 4.007,32.579 4.293,32.293 L12.586,24 L8,24 C7.596,24 7.23,23.757 7.076,23.383 C6.921,23.009 7.007,22.579 7.293,22.293 L14.586,15 L11,15 C10.596,15 10.23,14.757 10.076,14.383 C9.921,14.009 10.007,13.579 10.293,13.293 L23.293,0.293 C23.684,-0.098 24.316,-0.098 24.707,0.293 L37.707,13.293 C37.993,13.579 38.079,14.009 37.924,14.383 C37.77,14.757 37.404,15 37,15 L33.414,15 L40.707,22.293 C40.993,22.579 41.079,23.009 40.924,23.383 C40.77,23.757 40.404,24 40,24 L35.414,24 L43.707,32.293 C43.993,32.579 44.079,33.009 43.924,33.383 C43.77,33.757 43.404,34 43,34 L37.414,34 L44.707,41.293 C44.993,41.579 45.079,42.009 44.924,42.383 C44.77,42.757 44.404,43 44,43 L44,43 Z" id="Fill-437"></path>
            <polygon id="Fill-438" points="23 24 25 24 25 22 23 22"></polygon>
            <polygon id="Fill-439" points="23 34 25 34 25 32 23 32"></polygon>
            <polygon id="Fill-440" points="23 15 25 15 25 13 23 13"></polygon>
            <polygon id="Fill-441" points="0 56 64 56 64 54 0 54"></polygon>
        </g>
    </g>
</svg>