<svg id="Capa_1" data-name="Capa 1" xmlns="http://www.w3.org/2000/svg" viewBox="0 0 136 136"><defs><style>.cls-1{fill:#1fa319;}</style></defs><title>ICONO</title><path class="cls-1" d="M7.24,33.76v65.9H24.68a9.17,9.17,0,0,1,18.06,0H86.11V33.76Z"/><path d="M33.33,88.58a13,13,0,1,0,13,13A13,13,0,0,0,33.33,88.58Zm0,21.67A8.67,8.67,0,1,1,42,101.58,8.67,8.67,0,0,1,33.33,110.25Z"/><path d="M107,88.58a13,13,0,1,0,13,13A13,13,0,0,0,107,88.58Zm0,21.67a8.67,8.67,0,1,1,8.67-8.67A8.68,8.68,0,0,1,107,110.25Z"/><path d="M132.66,76.58l-19.5-30.34a2.17,2.17,0,0,0-1.83-1H87.5a2.17,2.17,0,0,0-2.17,2.17v54.16a2.17,2.17,0,0,0,2.17,2.17h8.67V99.42h-6.5V49.58h20.48l18.52,28.81v21H117.83v4.33h13a2.17,2.17,0,0,0,2.17-2.17V77.75A2.21,2.21,0,0,0,132.66,76.58Z"/><path d="M98.33,73.42V58.25h17.34V53.92H96.17A2.17,2.17,0,0,0,94,56.08v19.5a2.17,2.17,0,0,0,2.17,2.17h32.5V73.42Z"/><path d="M87.5,30.08H5.17A2.17,2.17,0,0,0,3,32.25v69.33a2.17,2.17,0,0,0,2.17,2.17H22.5V99.42H7.33v-65h78v65H44.17v4.33H87.5a2.17,2.17,0,0,0,2.17-2.17V32.25A2.17,2.17,0,0,0,87.5,30.08Z"/><rect x="5.17" y="90.75" width="13" height="4.33"/><rect x="48.5" y="90.75" width="36.83" height="4.33"/><rect x="122.17" y="90.75" width="8.67" height="4.33"/><rect x="11.67" y="38.75" width="75.83" height="4.33"/><rect x="31.17" y="99.42" width="4.33" height="4.33"/><rect x="104.83" y="99.42" width="4.33" height="4.33"/><rect x="11.67" y="21.42" width="30.33" height="4.33"/><rect x="3" y="21.42" width="4.33" height="4.33"/><path d="M57.11,64.64,50.51,58a1,1,0,0,0-1.42,0l-.6.6a1,1,0,0,0-.29.71,1,1,0,0,0,.29.72l3.85,3.86H40.1a1,1,0,0,0-1,1v.84a1,1,0,0,0,1,1H52.39l-3.9,3.89a1,1,0,0,0-.29.7,1,1,0,0,0,.29.7l.6.6a1,1,0,0,0,1.42,0l6.6-6.61a1,1,0,0,0,0-1.42Z"/></svg>