<svg id="Capa_1" data-name="Capa 1" xmlns="http://www.w3.org/2000/svg" viewBox="0 0 136 136"><defs><style>.cls-1{fill:#1fa319;}</style></defs><title>ICONO</title><path class="cls-1" d="M93.71,85.73h1.91l7.65,5.73V83.81c0-4.77-7.65-9.55-7.65-9.55L77.46,70.43C74.59,86.68,63.12,83.81,63.12,83.81,51.65,81.9,50.7,70.43,50.7,70.43H48.79L30.63,76.17l-5.74,7.64V114.4l13.47.41-1,.54,10.81-.25,8.3.25.09-.44,19.64-.46,27.11.9V103.88L99.44,102l-4.78,2.87-9.55,9.56-6.27-1.71.53-2.11L92.75,96.24l-3.82-3.82,4.39-6.3ZM67.9,108.66l-9.68-2.23.13-.63L78.42,87.64l2.86-1.91L83.7,89l-.51,2.51Z"/><path d="M105.21,116.31V103.48l.18-.17,2.06-2a4.82,4.82,0,0,0,0-7.09L105.21,92V87.61A16.85,16.85,0,0,0,92.13,71.23l-11.7-2.87a11.45,11.45,0,0,0,4-8.78V58.06l6-3.55A5,5,0,0,0,93,50.12V47.76a5,5,0,0,0-5.16-5.07,2.2,2.2,0,0,0-1,.17l-1.9.34,2.41-10a11.83,11.83,0,0,0-8.43-14L63.91,15,48.76,19.22a11.83,11.83,0,0,0-8.43,14l2.41,10-1.9-.34a5.09,5.09,0,0,0-6,4c0,.34-.17.68-.17,1v2.36a5.22,5.22,0,0,0,2.58,4.39l6,3.55v1.52a12,12,0,0,0,4,8.78L35.51,71.4A16.56,16.56,0,0,0,22.6,87.61v28.7Zm-24.09-5.23a1.93,1.93,0,0,1,.51-1.36L93.17,98.41l2.75,2.7L84.39,112.43a2.14,2.14,0,0,1-2.76,0A1.92,1.92,0,0,1,81.12,111.08Zm20.65,1.85H88.69l9.64-9.45a5.19,5.19,0,0,0,3.44,1.35Zm3.27-14-2.06,2a1.68,1.68,0,0,1-2.41,0l-8.95-8.78a1.6,1.6,0,0,1,0-2.36l2.06-2a1.7,1.7,0,0,1,2.41,0l9,8.78A1.62,1.62,0,0,1,105,98.92ZM81.12,56.54l-3.44,3.88a6.14,6.14,0,0,1-8.61.68l-1-1a5.28,5.28,0,0,0-7.23-1.18,4.13,4.13,0,0,0-1.21,1.18,6,6,0,0,1-8.43,1.35l-1-1L46.7,56.54V44a8.43,8.43,0,0,1,8.6-8.44,4.83,4.83,0,0,1,1.55.17l5,.84a9.19,9.19,0,0,0,4.3,0l5-.84a8.57,8.57,0,0,1,10,6.75A4.68,4.68,0,0,1,81.29,44v12.5ZM47.56,62.62a9.61,9.61,0,0,0,7.22,3.2h.52a9.77,9.77,0,0,0,7.4-3.88,1.88,1.88,0,0,1,2.41-.34l.35.34a9.56,9.56,0,0,0,13.25,2.2,16.7,16.7,0,0,0,1.72-1.52l.34-.34a8.36,8.36,0,0,1-4,4.73l-7.75,4.22a10.12,10.12,0,0,1-9.81,0L51.51,67a8.36,8.36,0,0,1-3.95-4.73ZM57.37,74.1a14.18,14.18,0,0,0,13.25,0l4.82-2.54-.52,2.37A11,11,0,0,1,61.67,82.2a10.77,10.77,0,0,1-8.43-8.27l-.52-2.37ZM87.66,46.24a1.73,1.73,0,0,1,2.06,1.35v2.7a1.77,1.77,0,0,1-.86,1.52l-4.3,2.36V46.74ZM49.79,22.43l14.12-4.05L78,22.43a8.28,8.28,0,0,1,6,10L82.84,38a12.15,12.15,0,0,0-12.39-5.57l-5,.85a10.07,10.07,0,0,1-3.1,0l-5-.85A12.05,12.05,0,0,0,45,38l-1.2-5.4A8.38,8.38,0,0,1,49.79,22.43ZM39,51.64a1.76,1.76,0,0,1-.86-1.52V47.76a1.61,1.61,0,0,1,1.72-1.69h.35l3.09.67v7.43ZM26,87.61a13.59,13.59,0,0,1,10.5-13.17l12.39-3,.69,3.2a14.61,14.61,0,0,0,28.4,0l.69-3.2,12.39,3a13.58,13.58,0,0,1,10.5,13.17v1l-3.27-3.21a5.05,5.05,0,0,0-7.23,0l-2.06,2a4.82,4.82,0,0,0,0,7.09l1.54,1.52L79.05,107.36a4.91,4.91,0,0,0-1.2,5.57H45V91H41.53v22H26Z"/><path d="M72,105.67,84.73,93.18a5.22,5.22,0,0,0,0-7.43,5.47,5.47,0,0,0-7.57,0L64.42,98.24l-1.2,1.18-7.92,7.77L68,109.72Zm7.57-17.56a2.13,2.13,0,0,1,2.75,0,1.89,1.89,0,0,1,.52,1.35,1.86,1.86,0,0,1-.52,1.35L70.79,102.13,68,99.42ZM62.19,105.17l3.44-3.38,2.75,2.7L66.83,106Z"/></svg>