<svg id="Capa_1" data-name="Capa 1" xmlns="http://www.w3.org/2000/svg" viewBox="0 0 136 136"><defs><style>.cls-1{fill:#00747f;}</style></defs><title>ICONO</title><polygon class="cls-1" points="66.47 82.04 40.08 82.04 40.08 28.3 103.24 28.3 103.24 47.16 99.47 47.16 94.76 42.44 90.04 46.21 89.1 48.1 84.39 49.04 84.39 52.81 67.42 52.81 66.47 82.04"/><rect x="40.1" y="17.54" width="26.83" height="3.83"/><rect x="70.76" y="17.54" width="3.83" height="3.83"/><path d="M104.61,117h18.06a1.65,1.65,0,0,0,1.64-1.64V53a1.65,1.65,0,0,0-1.64-1.64H107.89V48.05a1.63,1.63,0,0,0-1.64-1.64h-5.14a6.57,6.57,0,0,0-12.71,0H83.27a1.64,1.64,0,0,0-1.65,1.64v3.28H66.85A1.64,1.64,0,0,0,65.21,53v9.85s.05,53.09,0,54.18ZM84.91,49.69h4.92a1.63,1.63,0,0,0,1.64-1.64,3.29,3.29,0,0,1,6.57,0,1.64,1.64,0,0,0,1.64,1.64h4.93V57.9H84.91ZM83.27,61.18h23a1.63,1.63,0,0,0,1.64-1.64h8.21v49.25H73.41V59.54h8.21A1.64,1.64,0,0,0,83.27,61.18ZM68.49,113.72V54.62H81.62v1.64H71.77a1.64,1.64,0,0,0-1.64,1.64v52.53a1.64,1.64,0,0,0,1.64,1.64h46a1.63,1.63,0,0,0,1.64-1.64V57.9a1.63,1.63,0,0,0-1.64-1.64h-9.85V54.62H121v59.1Z"/><path d="M83.27,74.32a1.65,1.65,0,0,0,1.28-.62l6.57-8.21-2.57-2-5.62,7L79.25,68l-1.82,2.74L82.36,74A1.6,1.6,0,0,0,83.27,74.32Z"/><path d="M83.27,89.09a1.64,1.64,0,0,0,1.28-.61l6.57-8.21-2.57-2.06-5.62,7L79.25,82.8l-1.82,2.73,4.93,3.29A1.68,1.68,0,0,0,83.27,89.09Z"/><path d="M83.27,103.87a1.65,1.65,0,0,0,1.28-.62L91.12,95,88.55,93l-5.62,7-3.68-2.44-1.82,2.73,4.93,3.28A1.6,1.6,0,0,0,83.27,103.87Z"/><path d="M94.76,71h18.06v3.29H94.76Z"/><path d="M94.76,85.81h18.06v3.28H94.76Z"/><path d="M94.76,100.58h18.06v3.29H94.76Z"/><path d="M66.2,83.92h-31A10.24,10.24,0,0,1,25,73.69V38.27A11.86,11.86,0,0,1,36.8,26.41h66a1.89,1.89,0,0,1,1.89,1.89V46.69a1.89,1.89,0,0,1-1.89,1.88h0a1.89,1.89,0,0,1-1.89-1.89l0-16.49H36.8a8.08,8.08,0,0,0-8.08,8.08V73.69a6.47,6.47,0,0,0,6.46,6.46h31a1.89,1.89,0,1,1,0,3.77Z"/><path d="M26.48,65.29H16.24a4.55,4.55,0,0,1-4.55-4.54V49.17a4.52,4.52,0,0,1,4.45-4.5l10.67-.14a1.89,1.89,0,0,1,.05,3.77l-10.67.14a.75.75,0,0,0-.73.73V60.75a.77.77,0,0,0,.78.77H26.48a1.89,1.89,0,0,1,0,3.77Z"/><path d="M40.52,83.92A1.88,1.88,0,0,1,38.64,82V28.3a1.89,1.89,0,1,1,3.77,0V82A1.88,1.88,0,0,1,40.52,83.92Z"/><path d="M89.89,45.23H49.05a1.89,1.89,0,1,1,0-3.77H89.89a1.89,1.89,0,0,1,0,3.77Z"/><path d="M81.56,54.55H49.05a1.89,1.89,0,1,1,0-3.77H81.56a1.89,1.89,0,0,1,0,3.77Z"/><path d="M65.53,63.86H49.05a1.89,1.89,0,1,1,0-3.77H65.53a1.89,1.89,0,1,1,0,3.77Z"/><path d="M65.53,72.46H49.05a1.89,1.89,0,1,1,0-3.77H65.53a1.89,1.89,0,1,1,0,3.77Z"/><path d="M116.4,52.62a1.89,1.89,0,0,1-1.89-1.88v-8.6c0-3-2-3.13-2.41-3.13h-8.6a1.89,1.89,0,1,1,0-3.77h8.6c2.48,0,6.18,1.84,6.18,6.9v8.6A1.88,1.88,0,0,1,116.4,52.62Z"/></svg>