<svg id="Capa_1" data-name="Capa 1" xmlns="http://www.w3.org/2000/svg" viewBox="0 0 85 85"><defs><style>.cls-1{fill:#fff;}</style></defs><path class="cls-1" d="M42.52,84h0a4.09,4.09,0,0,1-3.42-2.12C30,68.21,21.47,54.7,15.84,39.7a27.38,27.38,0,0,1,1.8-23A28.35,28.35,0,0,1,37,2.62c1.19-.23,2.37-.34,3.52-.45L42,2h.2A28.31,28.31,0,0,1,66,14.38a28,28,0,0,1,2.64,27C63.47,53.91,56.68,65.24,50.11,75.63c-1.34,2.1-2.72,4.18-4.12,6.25A4.16,4.16,0,0,1,42.52,84ZM42.39,6.71c-.48.06-1,.1-1.46.15-1.08.1-2.09.2-3.07.39A23.59,23.59,0,0,0,21.75,19,22.36,22.36,0,0,0,20.24,38c5.38,14.33,13.27,26.87,22.3,40.54q1.83-2.72,3.59-5.47c6.46-10.2,13.12-21.32,18.12-33.48A23.6,23.6,0,0,0,42.39,6.71ZM42.45,48h-.06A16.66,16.66,0,0,1,25.88,31.29a16.47,16.47,0,0,1,4.94-11.81,16.85,16.85,0,0,1,11.9-4.79h.06A16.68,16.68,0,0,1,42.45,48Zm.27-28.64a12.16,12.16,0,0,0-8.6,3.44,11.79,11.79,0,0,0-3.53,8.47,11.94,11.94,0,0,0,11.82,12h0A11.71,11.71,0,0,0,51,39.83a12,12,0,0,0-8.2-20.43Z"/></svg>