<svg id="Capa_1" data-name="Capa 1" xmlns="http://www.w3.org/2000/svg" viewBox="0 0 85 85"><defs><style>.cls-1{fill:#fff;}</style></defs><path class="cls-1" d="M42.24,82.18q-15.24,0-30.48,0c-5.59,0-8.54-3-8.55-8.73q0-30.87,0-61.75C3.22,6,6.19,3,11.82,3H73.33c5.51,0,8.44,2.93,8.45,8.48q0,10.85,0,21.68V50.42q0,11.53,0,23.07c0,5.82-2.8,8.65-8.53,8.66Q57.77,82.18,42.24,82.18ZM42.56,8H11.82c-2.89,0-3.64.76-3.64,3.69q0,30.87,0,61.75c0,3.19.94,3.76,3.58,3.77q30.75,0,61.5,0c3,0,3.56-.62,3.56-3.7q0-11.52,0-23.06V33.17q0-10.83,0-21.67c0-2.8-.73-3.53-3.5-3.53Z"/><path class="cls-1" d="M45.76,69.36l-.68,0c-1.94-.14-4-.09-5.91,0l-.85,0a3.29,3.29,0,0,1-2.46-.75,3,3,0,0,1-.77-2.26q0-6.46,0-12.93,0-8.9.08-17.8c0-1,1-2.9,2.3-3,2.64-.1,5.22-.09,7.95-.08h3.58l.2,2.14.67-.34A24.69,24.69,0,0,1,55.54,32a13.05,13.05,0,0,1,15.62,8.85,23,23,0,0,1,1.18,6.61c.08,3.53.08,7.07.07,10.6,0,2.54,0,5.07,0,7.61a3.69,3.69,0,0,1-.87,2.77,3.5,3.5,0,0,1-2.63.8c-2.14-.08-4.28-.06-6.56,0H58V66c0-1.34,0-2.59,0-3.84l0-3.91c0-3.3,0-6.72-.16-10.06-.13-3.11-1.5-4.58-4-4.53a4.69,4.69,0,0,0-4.5,4.93c-.06,5.16-.14,11,0,16.66a4.27,4.27,0,0,1-1,3.27A3.67,3.67,0,0,1,45.76,69.36Zm-3.58-2.6c1,0,2,0,3.08.1s1.33-.1,1.39-.15.25-.33.21-1.4c-.17-5.71-.1-11.59,0-16.77.06-4.19,3-7.29,6.92-7.38s6.39,2.43,6.58,6.91c.14,3.39.15,6.82.16,10.15l0,3.9c0,1.26,0,2.51,0,3.86v.77h1.84c2.31,0,4.48,0,6.65.05a1.65,1.65,0,0,0,.81-.1s.14-.16.13-1c0-2.55,0-5.1,0-7.64,0-3.51,0-7-.08-10.53a19.67,19.67,0,0,0-1-5.88,10.5,10.5,0,0,0-12.7-7.23,23.05,23.05,0,0,0-5.05,2.09c-.79.41-1.58.81-2.36,1.16l-1.59.71L46.79,35H45.46c-2.58,0-5,0-7.49.07a1.73,1.73,0,0,0-.27.55c-.05,5.89-.06,11.82-.08,17.74q0,6.48,0,12.95a1.3,1.3,0,0,0,.06.49s.15,0,.51,0h.12l.85,0C40.12,66.79,41.14,66.76,42.18,66.76Zm-13.4,2.57h-.29c-2.68-.12-5.31-.07-7.53,0a3.42,3.42,0,0,1-2.56-.8,3.09,3.09,0,0,1-.84-2.38q0-15.24,0-30.47a3.13,3.13,0,0,1,.84-2.39A3.45,3.45,0,0,1,21,32.47c2.26.06,4.92.1,7.53,0a3.46,3.46,0,0,1,2.64.81,3.76,3.76,0,0,1,.9,2.8c-.05,3.59,0,7.18,0,10.77v8.37c0,3.52,0,7,0,10.56a3.69,3.69,0,0,1-.88,2.76A3.24,3.24,0,0,1,28.78,69.33Zm-3.84-2.56c1.19,0,2.41,0,3.66.08.66,0,.82-.1.82-.1s.14-.16.13-.94c-.05-3.53-.05-7.07,0-10.6V46.84c0-3.6,0-7.2,0-10.8,0-.83-.14-1-.14-1s-.25-.13-.8-.11c-2.69.12-5.4.07-7.7,0-.62,0-.76.09-.76.1s-.1.18-.1.6q0,15.24,0,30.48a1.23,1.23,0,0,0,.09.61h0a1.68,1.68,0,0,0,.76.09C22.13,66.8,23.51,66.77,24.94,66.77Zm-.32-35.86h-.05A7.34,7.34,0,0,1,17,23.55a7,7,0,0,1,2.09-5,8.15,8.15,0,0,1,5.81-2.3H25a7.79,7.79,0,0,1,5.57,2.24,7.37,7.37,0,0,1,2.05,5.32C32.52,28.06,29.33,30.91,24.62,30.91Zm.27-12.17a5.69,5.69,0,0,0-4.06,1.57,4.57,4.57,0,0,0-1.36,3.24,4.9,4.9,0,0,0,5.11,4.87h0c3.34,0,5.44-1.77,5.47-4.64a4.86,4.86,0,0,0-1.34-3.55,5.34,5.34,0,0,0-3.82-1.49Z"/></svg>