<svg id="Capa_1" data-name="Capa 1" xmlns="http://www.w3.org/2000/svg" viewBox="0 0 426 85"><defs><style>.cls-1{fill:#fff;}</style></defs><path class="cls-1" d="M6.58,42.45V5.13h8V42.45Z"/><path class="cls-1" d="M23.07,42.45V5.13h8.28L47.87,26.85a16.12,16.12,0,0,1,1.57,2.59c.57,1.11,1.16,2.42,1.77,3.94-.19-1.11-.32-2.21-.41-3.29s-.12-2.45-.12-4.08V5.13H58.3V42.45H50.47l-17-22.13a16.54,16.54,0,0,1-1.55-2.58c-.56-1.12-1.16-2.45-1.79-4A31.71,31.71,0,0,1,30.56,17c.09,1.09.13,2.47.13,4.14V42.45Z"/><path class="cls-1" d="M80.55,11.91V42.45h-8V11.91H63.42V5.13H89.68v6.78Z"/><path class="cls-1" d="M94.9,42.45V5.13h22v6.73h-14v7.67h14v6.78h-14v9.36h14v6.78Z"/><path class="cls-1" d="M151.7,42.45h-9.2L132.68,25V42.45h-8V5.13h11.42q6.81,0,10.2,2.64t3.39,7.94a9.8,9.8,0,0,1-2.32,6.58,9,9,0,0,1-6,3.18ZM132.68,21h1.2q4.85,0,6.4-1.06a4.14,4.14,0,0,0,1.55-3.68,4.42,4.42,0,0,0-1.67-3.92q-1.66-1.16-6.28-1.16h-1.2Z"/><path class="cls-1" d="M170.28,11.91V42.45h-8V11.91h-9.13V5.13h26.26v6.78Z"/><path class="cls-1" d="M184.63,42.45V5.13h22v6.73h-14v7.67h14v6.78h-14v9.36h14v6.78Z"/><path class="cls-1" d="M244.49,14.84a16.87,16.87,0,0,0-5-3.17,14.67,14.67,0,0,0-5.45-1,12.79,12.79,0,0,0-9.51,3.57Q221,17.8,221,23.82t3.29,9.34q3.28,3.45,9,3.45a15.89,15.89,0,0,0,11.16-4.33l-.05,8.18A21.5,21.5,0,0,1,239,42.71a23,23,0,0,1-5.87.73q-8.92,0-14.65-5.54a18.79,18.79,0,0,1-5.72-14.08,18.66,18.66,0,0,1,5.74-14q5.73-5.53,14.78-5.53a25.92,25.92,0,0,1,11.45,2.6Z"/><path class="cls-1" d="M251.9,42.45V5.13h8.29l16.52,21.72a16.18,16.18,0,0,1,1.56,2.59c.57,1.11,1.17,2.42,1.78,3.94-.19-1.11-.33-2.21-.41-3.29s-.13-2.45-.13-4.08V5.13h7.62V42.45h-7.82l-17-22.13a15.8,15.8,0,0,1-1.55-2.58c-.57-1.12-1.16-2.45-1.79-4,.19,1.07.32,2.15.41,3.25s.13,2.47.13,4.14V42.45Z"/><path class="cls-1" d="M295.6,42.45V5.13h8V42.45Z"/><path class="cls-1" d="M342.14,14.84a16.71,16.71,0,0,0-5-3.17,14.71,14.71,0,0,0-5.45-1,12.79,12.79,0,0,0-9.51,3.57q-3.54,3.57-3.54,9.59T322,33.16a11.83,11.83,0,0,0,9,3.45,15.93,15.93,0,0,0,11.16-4.33l0,8.18a21.5,21.5,0,0,1-5.34,2.25,23,23,0,0,1-5.87.73q-8.93,0-14.65-5.54a18.75,18.75,0,0,1-5.72-14.08,18.69,18.69,0,0,1,5.73-14Q321.93,4.24,331,4.24a26.31,26.31,0,0,1,5.86.64,25.77,25.77,0,0,1,5.58,2Z"/><path class="cls-1" d="M387.77,23.87a19.5,19.5,0,0,1-1.49,7.57A18.45,18.45,0,0,1,382,37.71,20.82,20.82,0,0,1,375.43,42a20,20,0,0,1-7.54,1.47,19.71,19.71,0,0,1-6.69-1.16,20.67,20.67,0,0,1-6-3.32,19.53,19.53,0,0,1-5.78-22.65A18.62,18.62,0,0,1,353.74,10a20.41,20.41,0,0,1,14.15-5.74,19.89,19.89,0,0,1,7.58,1.5A20.56,20.56,0,0,1,382,10a18.76,18.76,0,0,1,4.3,6.29A19.33,19.33,0,0,1,387.77,23.87ZM367.89,36.33a10.92,10.92,0,0,0,8.37-3.55,12.59,12.59,0,0,0,3.3-8.91A12.63,12.63,0,0,0,376.22,15a10.83,10.83,0,0,0-8.33-3.62,11,11,0,0,0-8.41,3.6,12.66,12.66,0,0,0-3.34,8.94,12.55,12.55,0,0,0,3.29,8.93A11,11,0,0,0,367.89,36.33Z"/><path class="cls-1" d="M392.11,37.71l4.43-5a6.83,6.83,0,0,0,2.7,3.25,7.63,7.63,0,0,0,4.18,1.18,6.87,6.87,0,0,0,4.44-1.32,4.37,4.37,0,0,0,1.63-3.57q0-2.65-5.43-5.28c-1.17-.56-2.1-1-2.78-1.37-3.26-1.7-5.52-3.37-6.78-5a9.15,9.15,0,0,1-1.88-5.8,9.33,9.33,0,0,1,3.65-7.58,14.61,14.61,0,0,1,9.5-3,13.36,13.36,0,0,1,5.85,1.18A12,12,0,0,1,416,9.13l-4.72,4.52A5.77,5.77,0,0,0,409,11.21a6.67,6.67,0,0,0-3.35-.8,5.88,5.88,0,0,0-3.83,1.18,3.79,3.79,0,0,0-1.45,3.08q0,3,5.76,5.4c.77.32,1.35.58,1.76.76a19.71,19.71,0,0,1,7,4.9A9.43,9.43,0,0,1,417.21,32a10.53,10.53,0,0,1-3.58,8.37q-3.57,3.12-9.62,3.12A16.83,16.83,0,0,1,396.67,42,10,10,0,0,1,392.11,37.71Z"/><path class="cls-1" d="M6.58,77V61.13h7.84v1.35H8v5h6.4v1.35H8v6.83h6.4V77Z"/><path class="cls-1" d="M24.62,77V61.13h1.43V75.62h5.44V77Z"/><path class="cls-1" d="M40.44,77V61.13h7.84v1.35h-6.4v5h6.4v1.35h-6.4v6.83h6.4V77Z"/><path class="cls-1" d="M71.2,64a8.4,8.4,0,0,0-2.41-1.5,6.91,6.91,0,0,0-2.6-.49,6.69,6.69,0,0,0-5,2,6.92,6.92,0,0,0-1.92,5.07,8,8,0,0,0,.47,2.82,6.22,6.22,0,0,0,1.43,2.23,6.45,6.45,0,0,0,2.18,1.45,6.82,6.82,0,0,0,2.64.5,7.84,7.84,0,0,0,2.66-.46,8.68,8.68,0,0,0,2.45-1.38v1.69A10.13,10.13,0,0,1,68.64,77a9.32,9.32,0,0,1-2.58.38,8.74,8.74,0,0,1-3.29-.62A7.78,7.78,0,0,1,60.08,75a7.51,7.51,0,0,1-1.75-2.66,9.38,9.38,0,0,1,0-6.63A7.5,7.5,0,0,1,60.1,63.1a7.84,7.84,0,0,1,2.69-1.71,8.92,8.92,0,0,1,3.27-.62,9,9,0,0,1,2.81.42,7.59,7.59,0,0,1,2.35,1.25Z"/><path class="cls-1" d="M83.8,77V62.48H79.44V61.13H89.61v1.35H85.24V77Z"/><path class="cls-1" d="M108.28,77h-1.75L101,69.42h-.86V77H98.67V61.13h2.91a5.91,5.91,0,0,1,3.85,1.07,4,4,0,0,1,1.29,3.25,3.87,3.87,0,0,1-1.1,2.91,4.22,4.22,0,0,1-3,1.06Zm-8.17-14.58v5.85h1.44a4.64,4.64,0,0,0,2.81-.64,2.68,2.68,0,0,0,.8-2.2,2.88,2.88,0,0,0-.83-2.32,4.33,4.33,0,0,0-2.78-.69Z"/><path class="cls-1" d="M117,77V61.13h1.44V77Z"/><path class="cls-1" d="M141.81,64a8.4,8.4,0,0,0-2.41-1.5,6.91,6.91,0,0,0-2.6-.49,6.69,6.69,0,0,0-5,2,6.92,6.92,0,0,0-1.92,5.07,8,8,0,0,0,.47,2.82,6.22,6.22,0,0,0,1.43,2.23A6.45,6.45,0,0,0,134,75.56a6.82,6.82,0,0,0,2.64.5,7.84,7.84,0,0,0,2.66-.46,8.87,8.87,0,0,0,2.46-1.38v1.69a10.37,10.37,0,0,1-2.48,1.1,9.32,9.32,0,0,1-2.58.38,8.78,8.78,0,0,1-3.29-.62A7.78,7.78,0,0,1,130.69,75a7.51,7.51,0,0,1-1.75-2.66,9.38,9.38,0,0,1,0-6.63,7.64,7.64,0,0,1,1.76-2.65,7.84,7.84,0,0,1,2.69-1.71,8.92,8.92,0,0,1,3.27-.62,9,9,0,0,1,2.81.42,7.59,7.59,0,0,1,2.35,1.25Z"/><path class="cls-1" d="M167.8,69.08a8,8,0,0,1-.64,3.19A8.17,8.17,0,0,1,165.32,75a8.36,8.36,0,0,1-2.76,1.81,8.8,8.8,0,0,1-6.49,0A8.39,8.39,0,0,1,153.33,75a8.29,8.29,0,0,1-1.85-2.7,8.13,8.13,0,0,1-.63-3.18,8.1,8.1,0,0,1,2.48-5.91A8,8,0,0,1,156,61.38a8.88,8.88,0,0,1,3.27-.61,8.75,8.75,0,0,1,3.29.62,8,8,0,0,1,2.72,1.78,8.1,8.1,0,0,1,2.48,5.91Zm-8.49,7a6.87,6.87,0,0,0,2.67-.52,7,7,0,0,0,4.3-6.5,6.95,6.95,0,0,0-2-5A6.78,6.78,0,0,0,162,62.58a6.88,6.88,0,0,0-2.68-.52,6.77,6.77,0,0,0-2.65.52,7,7,0,0,0-2.25,1.52,7.08,7.08,0,0,0,0,10,6.76,6.76,0,0,0,2.23,1.52A6.9,6.9,0,0,0,159.31,76.1Z"/><path class="cls-1" d="M176.44,74.31l1.23-.66a3.38,3.38,0,0,0,1.2,1.81,3.25,3.25,0,0,0,2,.64,3.11,3.11,0,0,0,2.35-.88,3.43,3.43,0,0,0,.84-2.46,3.06,3.06,0,0,0-.57-1.9,7.72,7.72,0,0,0-2.44-1.76,11,11,0,0,1-3.18-2.22,3.55,3.55,0,0,1-.79-2.32,3.6,3.6,0,0,1,1.14-2.75,4.21,4.21,0,0,1,3-1.06,4,4,0,0,1,2.07.51,3.69,3.69,0,0,1,1.44,1.51l-1.12.67a2.35,2.35,0,0,0-1-1,3,3,0,0,0-1.5-.36,2.54,2.54,0,0,0-1.86.69,2.49,2.49,0,0,0-.69,1.85c0,1.11.92,2.15,2.75,3.11l.76.4a7.84,7.84,0,0,1,2.7,2.1,4.41,4.41,0,0,1,.68,2.57,4.71,4.71,0,0,1-7.29,3.86A5.1,5.1,0,0,1,176.44,74.31Z"/><path class="cls-1" d="M208.41,77V61.13h1.44V77Z"/><path class="cls-1" d="M220.46,77V60.46l11.22,13.25V61.13H233v16.3l-11.2-13.27V77Z"/><path class="cls-1" d="M243.64,77V61.13h2.47a22.81,22.81,0,0,1,4.68.33,5.76,5.76,0,0,1,2.38,1.11,6.69,6.69,0,0,1,2,2.7,10.75,10.75,0,0,1,0,7.58,6.19,6.19,0,0,1-4.34,3.78,18.67,18.67,0,0,1-4.25.34h-3Zm1.44-1.24h2a15.37,15.37,0,0,0,3.48-.28,4.09,4.09,0,0,0,1.74-.94,5.94,5.94,0,0,0,1.5-2.31,9.11,9.11,0,0,0,.51-3.16,9.22,9.22,0,0,0-.51-3.2,5.45,5.45,0,0,0-1.52-2.27,4.32,4.32,0,0,0-1.85-1,17.42,17.42,0,0,0-3.82-.28h-1.56Z"/><path class="cls-1" d="M265.68,61.13h1.42V71.47A5,5,0,0,0,268.17,75a5.25,5.25,0,0,0,6.53,0,5,5,0,0,0,1.07-3.49V61.13h1.44V71a7,7,0,0,1-1.43,4.8,6.74,6.74,0,0,1-8.67,0,7,7,0,0,1-1.43-4.8Z"/><path class="cls-1" d="M286.54,74.31l1.23-.66a3.38,3.38,0,0,0,1.2,1.81,3.25,3.25,0,0,0,2,.64,3.07,3.07,0,0,0,2.34-.88,3.39,3.39,0,0,0,.85-2.46,3.06,3.06,0,0,0-.57-1.9,7.72,7.72,0,0,0-2.44-1.76A10.72,10.72,0,0,1,288,66.88a3.55,3.55,0,0,1-.79-2.32,3.6,3.6,0,0,1,1.14-2.75,4.21,4.21,0,0,1,3-1.06,4.07,4.07,0,0,1,2.07.51,3.61,3.61,0,0,1,1.43,1.51l-1.11.67a2.35,2.35,0,0,0-1-1,3,3,0,0,0-1.5-.36,2.38,2.38,0,0,0-2.55,2.54c0,1.11.91,2.15,2.75,3.11l.75.4a8,8,0,0,1,2.71,2.1,4.48,4.48,0,0,1,.68,2.57,4.72,4.72,0,0,1-7.3,3.86A5.08,5.08,0,0,1,286.54,74.31Z"/><path class="cls-1" d="M308.27,77V62.48h-4.36V61.13h10.17v1.35h-4.37V77Z"/><path class="cls-1" d="M332.75,77H331l-5.56-7.55h-.87V77h-1.43V61.13h2.91a5.91,5.91,0,0,1,3.85,1.07,4,4,0,0,1,1.28,3.25,3.87,3.87,0,0,1-1.09,2.91,4.22,4.22,0,0,1-3,1.06Zm-8.18-14.58v5.85H326a4.64,4.64,0,0,0,2.81-.64,2.68,2.68,0,0,0,.8-2.2,2.88,2.88,0,0,0-.83-2.32,4.33,4.33,0,0,0-2.78-.69Z"/><path class="cls-1" d="M341.5,77V61.13h1.44V77Z"/><path class="cls-1" d="M351.39,77l7-16.47L365,77h-1.57l-2-5.37H355L352.85,77Zm4.05-6.6H361l-2.7-6.89Z"/><path class="cls-1" d="M373.46,77V61.13h1.43V75.62h5.44V77Z"/><path class="cls-1" d="M389.28,77V61.13h7.84v1.35h-6.4v5h6.4v1.35h-6.4v6.83h6.4V77Z"/><path class="cls-1" d="M406.11,74.31l1.23-.66a3.38,3.38,0,0,0,1.2,1.81,3.24,3.24,0,0,0,2,.64,3.08,3.08,0,0,0,2.35-.88,3.43,3.43,0,0,0,.85-2.46,3.06,3.06,0,0,0-.57-1.9,7.72,7.72,0,0,0-2.44-1.76,10.72,10.72,0,0,1-3.18-2.22,3.55,3.55,0,0,1-.79-2.32,3.6,3.6,0,0,1,1.14-2.75,4.21,4.21,0,0,1,3-1.06,4.07,4.07,0,0,1,2.07.51,3.67,3.67,0,0,1,1.43,1.51l-1.11.67a2.35,2.35,0,0,0-1-1,3,3,0,0,0-1.5-.36,2.38,2.38,0,0,0-2.55,2.54c0,1.11.91,2.15,2.75,3.11l.75.4a8,8,0,0,1,2.71,2.1,4.48,4.48,0,0,1,.68,2.57,4.72,4.72,0,0,1-7.3,3.86A5,5,0,0,1,406.11,74.31Z"/></svg>