<svg id="Capa_1" data-name="Capa 1" xmlns="http://www.w3.org/2000/svg" viewBox="0 0 434 184"><defs><style>.cls-1{fill:#fff;}.cls-2{fill:red;}</style></defs><path class="cls-1" d="M12.58,44.45V7.13h8V44.45Z"/><path class="cls-1" d="M29.07,44.45V7.13h8.28L53.87,28.85a16.12,16.12,0,0,1,1.57,2.59c.57,1.11,1.16,2.42,1.77,3.94-.19-1.11-.32-2.21-.41-3.29s-.12-2.45-.12-4.08V7.13H64.3V44.45H56.47l-17-22.13a16.54,16.54,0,0,1-1.55-2.58c-.56-1.12-1.16-2.45-1.79-4A31.71,31.71,0,0,1,36.56,19c.09,1.09.13,2.47.13,4.14V44.45Z"/><path class="cls-1" d="M86.55,13.91V44.45h-8V13.91H69.42V7.13H95.68v6.78Z"/><path class="cls-1" d="M100.9,44.45V7.13h22v6.73h-14v7.67h14v6.78h-14v9.36h14v6.78Z"/><path class="cls-1" d="M157.7,44.45h-9.2L138.68,27V44.45h-8V7.13h11.42q6.81,0,10.2,2.64t3.39,7.94a9.8,9.8,0,0,1-2.32,6.58,9,9,0,0,1-6,3.18ZM138.68,23h1.2q4.85,0,6.4-1.06a4.14,4.14,0,0,0,1.55-3.68,4.42,4.42,0,0,0-1.67-3.92q-1.66-1.16-6.28-1.16h-1.2Z"/><path class="cls-1" d="M176.28,13.91V44.45h-8V13.91h-9.13V7.13h26.26v6.78Z"/><path class="cls-1" d="M190.63,44.45V7.13h22v6.73h-14v7.67h14v6.78h-14v9.36h14v6.78Z"/><path class="cls-1" d="M250.49,16.84a16.87,16.87,0,0,0-5-3.17,14.67,14.67,0,0,0-5.45-1,12.79,12.79,0,0,0-9.51,3.57Q227,19.8,227,25.82t3.29,9.34q3.28,3.45,9,3.45a15.89,15.89,0,0,0,11.16-4.33l-.05,8.18A21.5,21.5,0,0,1,245,44.71a23,23,0,0,1-5.87.73q-8.92,0-14.65-5.54a18.79,18.79,0,0,1-5.72-14.08,18.66,18.66,0,0,1,5.74-14q5.73-5.53,14.78-5.53a25.92,25.92,0,0,1,11.45,2.6Z"/><path class="cls-1" d="M257.9,44.45V7.13h8.29l16.52,21.72a16.18,16.18,0,0,1,1.56,2.59c.57,1.11,1.17,2.42,1.78,3.94-.19-1.11-.33-2.21-.41-3.29s-.13-2.45-.13-4.08V7.13h7.62V44.45h-7.82l-17-22.13a15.8,15.8,0,0,1-1.55-2.58c-.57-1.12-1.16-2.45-1.79-4,.19,1.07.32,2.15.41,3.25s.13,2.47.13,4.14V44.45Z"/><path class="cls-1" d="M301.6,44.45V7.13h8V44.45Z"/><path class="cls-1" d="M348.14,16.84a16.71,16.71,0,0,0-5-3.17,14.71,14.71,0,0,0-5.45-1,12.79,12.79,0,0,0-9.51,3.57q-3.54,3.57-3.54,9.59T328,35.16a11.83,11.83,0,0,0,9,3.45,15.93,15.93,0,0,0,11.16-4.33l0,8.18a21.5,21.5,0,0,1-5.34,2.25,23,23,0,0,1-5.87.73q-8.93,0-14.65-5.54a18.75,18.75,0,0,1-5.72-14.08,18.69,18.69,0,0,1,5.73-14Q327.93,6.24,337,6.24a26.31,26.31,0,0,1,5.86.64,25.77,25.77,0,0,1,5.58,2Z"/><path class="cls-1" d="M393.77,25.87a19.5,19.5,0,0,1-1.49,7.57A18.45,18.45,0,0,1,388,39.71,20.82,20.82,0,0,1,381.43,44a20,20,0,0,1-7.54,1.47,19.71,19.71,0,0,1-6.69-1.16,20.67,20.67,0,0,1-6-3.32,19.53,19.53,0,0,1-5.78-22.65A18.62,18.62,0,0,1,359.74,12a20.41,20.41,0,0,1,14.15-5.74,19.89,19.89,0,0,1,7.58,1.5A20.56,20.56,0,0,1,388,12a18.76,18.76,0,0,1,4.3,6.29A19.33,19.33,0,0,1,393.77,25.87ZM373.89,38.33a10.92,10.92,0,0,0,8.37-3.55,12.59,12.59,0,0,0,3.3-8.91A12.63,12.63,0,0,0,382.22,17a10.83,10.83,0,0,0-8.33-3.62,11,11,0,0,0-8.41,3.6,12.66,12.66,0,0,0-3.34,8.94,12.55,12.55,0,0,0,3.29,8.93A11,11,0,0,0,373.89,38.33Z"/><path class="cls-1" d="M398.11,39.71l4.43-5a6.83,6.83,0,0,0,2.7,3.25,7.63,7.63,0,0,0,4.18,1.18,6.87,6.87,0,0,0,4.44-1.32,4.37,4.37,0,0,0,1.63-3.57q0-2.65-5.43-5.28c-1.17-.56-2.1-1-2.78-1.37-3.26-1.7-5.52-3.37-6.78-5a9.15,9.15,0,0,1-1.88-5.8,9.33,9.33,0,0,1,3.65-7.58,14.61,14.61,0,0,1,9.5-3,13.36,13.36,0,0,1,5.85,1.18A12,12,0,0,1,422,11.13l-4.72,4.52A5.77,5.77,0,0,0,415,13.21a6.67,6.67,0,0,0-3.35-.8,5.88,5.88,0,0,0-3.83,1.18,3.79,3.79,0,0,0-1.45,3.08q0,3,5.76,5.4c.77.32,1.35.58,1.76.76a19.71,19.71,0,0,1,7,4.9A9.43,9.43,0,0,1,423.21,34a10.53,10.53,0,0,1-3.58,8.37q-3.57,3.12-9.62,3.12A16.83,16.83,0,0,1,402.67,44,10,10,0,0,1,398.11,39.71Z"/><path class="cls-1" d="M12.58,79V63.13h7.84v1.35H14v5h6.4v1.35H14v6.83h6.4V79Z"/><path class="cls-1" d="M30.62,79V63.13h1.43V77.62h5.44V79Z"/><path class="cls-1" d="M46.44,79V63.13h7.84v1.35h-6.4v5h6.4v1.35h-6.4v6.83h6.4V79Z"/><path class="cls-1" d="M77.2,66a8.4,8.4,0,0,0-2.41-1.5,6.91,6.91,0,0,0-2.6-.49,6.69,6.69,0,0,0-5,1.95,6.92,6.92,0,0,0-1.92,5.07,8,8,0,0,0,.47,2.82,6.22,6.22,0,0,0,1.43,2.23,6.45,6.45,0,0,0,2.18,1.45,6.82,6.82,0,0,0,2.64.5,7.84,7.84,0,0,0,2.66-.46,8.68,8.68,0,0,0,2.45-1.38v1.69A10.13,10.13,0,0,1,74.64,79a9.32,9.32,0,0,1-2.58.38,8.74,8.74,0,0,1-3.29-.62A7.78,7.78,0,0,1,66.08,77a7.51,7.51,0,0,1-1.75-2.66,9.38,9.38,0,0,1,0-6.63A7.5,7.5,0,0,1,66.1,65.1a7.84,7.84,0,0,1,2.69-1.71,8.92,8.92,0,0,1,3.27-.62,9,9,0,0,1,2.81.42,7.59,7.59,0,0,1,2.35,1.25Z"/><path class="cls-1" d="M89.8,79V64.48H85.44V63.13H95.61v1.35H91.24V79Z"/><path class="cls-1" d="M114.28,79h-1.75L107,71.42h-.86V79h-1.44V63.13h2.91a5.91,5.91,0,0,1,3.85,1.07,4,4,0,0,1,1.29,3.25,3.87,3.87,0,0,1-1.1,2.91,4.22,4.22,0,0,1-3,1.06Zm-8.17-14.58v5.85h1.44a4.64,4.64,0,0,0,2.81-.64,2.68,2.68,0,0,0,.8-2.2,2.88,2.88,0,0,0-.83-2.32,4.33,4.33,0,0,0-2.78-.69Z"/><path class="cls-1" d="M123,79V63.13h1.44V79Z"/><path class="cls-1" d="M147.81,66a8.4,8.4,0,0,0-2.41-1.5,6.91,6.91,0,0,0-2.6-.49,6.69,6.69,0,0,0-5,1.95,6.92,6.92,0,0,0-1.92,5.07,8,8,0,0,0,.47,2.82,6.22,6.22,0,0,0,1.43,2.23A6.45,6.45,0,0,0,140,77.56a6.82,6.82,0,0,0,2.64.5,7.84,7.84,0,0,0,2.66-.46,8.87,8.87,0,0,0,2.46-1.38v1.69a10.37,10.37,0,0,1-2.48,1.1,9.32,9.32,0,0,1-2.58.38,8.78,8.78,0,0,1-3.29-.62A7.78,7.78,0,0,1,136.69,77a7.51,7.51,0,0,1-1.75-2.66,9.38,9.38,0,0,1,0-6.63,7.64,7.64,0,0,1,1.76-2.65,7.84,7.84,0,0,1,2.69-1.71,8.92,8.92,0,0,1,3.27-.62,9,9,0,0,1,2.81.42,7.59,7.59,0,0,1,2.35,1.25Z"/><path class="cls-1" d="M173.8,71.08a8,8,0,0,1-.64,3.19A8.17,8.17,0,0,1,171.32,77a8.36,8.36,0,0,1-2.76,1.81,8.8,8.8,0,0,1-6.49,0A8.39,8.39,0,0,1,159.33,77a8.29,8.29,0,0,1-1.85-2.7,8.13,8.13,0,0,1-.63-3.18,8.1,8.1,0,0,1,2.48-5.91A8,8,0,0,1,162,63.38a8.88,8.88,0,0,1,3.27-.61,8.75,8.75,0,0,1,3.29.62,8,8,0,0,1,2.72,1.78,8.1,8.1,0,0,1,2.48,5.91Zm-8.49,7a6.87,6.87,0,0,0,2.67-.52,7,7,0,0,0,4.3-6.5,6.95,6.95,0,0,0-2-5A6.78,6.78,0,0,0,168,64.58a6.88,6.88,0,0,0-2.68-.52,6.77,6.77,0,0,0-2.65.52,7,7,0,0,0-2.25,1.52,7.08,7.08,0,0,0,0,10,6.76,6.76,0,0,0,2.23,1.52A6.9,6.9,0,0,0,165.31,78.1Z"/><path class="cls-1" d="M182.44,76.31l1.23-.66a3.38,3.38,0,0,0,1.2,1.81,3.25,3.25,0,0,0,2,.64,3.11,3.11,0,0,0,2.35-.88,3.43,3.43,0,0,0,.84-2.46,3.06,3.06,0,0,0-.57-1.9,7.72,7.72,0,0,0-2.44-1.76,11,11,0,0,1-3.18-2.22,3.55,3.55,0,0,1-.79-2.32,3.6,3.6,0,0,1,1.14-2.75,4.21,4.21,0,0,1,3-1.06,4,4,0,0,1,2.07.51,3.69,3.69,0,0,1,1.44,1.51l-1.12.67a2.35,2.35,0,0,0-1-1,3,3,0,0,0-1.5-.36,2.54,2.54,0,0,0-1.86.69,2.49,2.49,0,0,0-.69,1.85c0,1.11.92,2.15,2.75,3.11l.76.4a7.84,7.84,0,0,1,2.7,2.1,4.41,4.41,0,0,1,.68,2.57,4.71,4.71,0,0,1-7.29,3.86A5.1,5.1,0,0,1,182.44,76.31Z"/><path class="cls-1" d="M214.41,79V63.13h1.44V79Z"/><path class="cls-1" d="M226.46,79V62.46l11.22,13.25V63.13H239v16.3l-11.2-13.27V79Z"/><path class="cls-1" d="M249.64,79V63.13h2.47a22.81,22.81,0,0,1,4.68.33,5.76,5.76,0,0,1,2.38,1.11,6.69,6.69,0,0,1,2,2.7,10.75,10.75,0,0,1,0,7.58,6.19,6.19,0,0,1-4.34,3.78,18.67,18.67,0,0,1-4.25.34h-3Zm1.44-1.24h2a15.37,15.37,0,0,0,3.48-.28,4.09,4.09,0,0,0,1.74-.94,5.94,5.94,0,0,0,1.5-2.31,9.11,9.11,0,0,0,.51-3.16,9.22,9.22,0,0,0-.51-3.2,5.45,5.45,0,0,0-1.52-2.27,4.32,4.32,0,0,0-1.85-1,17.42,17.42,0,0,0-3.82-.28h-1.56Z"/><path class="cls-1" d="M271.68,63.13h1.42V73.47A5,5,0,0,0,274.17,77a5.25,5.25,0,0,0,6.53,0,5,5,0,0,0,1.07-3.49V63.13h1.44V73a7,7,0,0,1-1.43,4.8,6.74,6.74,0,0,1-8.67,0,7,7,0,0,1-1.43-4.8Z"/><path class="cls-1" d="M292.54,76.31l1.23-.66a3.38,3.38,0,0,0,1.2,1.81,3.25,3.25,0,0,0,2,.64,3.07,3.07,0,0,0,2.34-.88,3.39,3.39,0,0,0,.85-2.46,3.06,3.06,0,0,0-.57-1.9,7.72,7.72,0,0,0-2.44-1.76A10.72,10.72,0,0,1,294,68.88a3.55,3.55,0,0,1-.79-2.32,3.6,3.6,0,0,1,1.14-2.75,4.21,4.21,0,0,1,3-1.06,4.07,4.07,0,0,1,2.07.51,3.61,3.61,0,0,1,1.43,1.51l-1.11.67a2.35,2.35,0,0,0-1-1,3,3,0,0,0-1.5-.36,2.38,2.38,0,0,0-2.55,2.54c0,1.11.91,2.15,2.75,3.11l.75.4a8,8,0,0,1,2.71,2.1,4.48,4.48,0,0,1,.68,2.57,4.72,4.72,0,0,1-7.3,3.86A5.08,5.08,0,0,1,292.54,76.31Z"/><path class="cls-1" d="M314.27,79V64.48h-4.36V63.13h10.17v1.35h-4.37V79Z"/><path class="cls-1" d="M338.75,79H337l-5.56-7.55h-.87V79h-1.43V63.13h2.91a5.91,5.91,0,0,1,3.85,1.07,4,4,0,0,1,1.28,3.25,3.87,3.87,0,0,1-1.09,2.91,4.22,4.22,0,0,1-3,1.06Zm-8.18-14.58v5.85H332a4.64,4.64,0,0,0,2.81-.64,2.68,2.68,0,0,0,.8-2.2,2.88,2.88,0,0,0-.83-2.32,4.33,4.33,0,0,0-2.78-.69Z"/><path class="cls-1" d="M347.5,79V63.13h1.44V79Z"/><path class="cls-1" d="M357.39,79l7-16.47L371,79h-1.57l-2-5.37H361L358.85,79Zm4.05-6.6H367l-2.7-6.89Z"/><path class="cls-1" d="M379.46,79V63.13h1.43V77.62h5.44V79Z"/><path class="cls-1" d="M395.28,79V63.13h7.84v1.35h-6.4v5h6.4v1.35h-6.4v6.83h6.4V79Z"/><path class="cls-1" d="M412.11,76.31l1.23-.66a3.38,3.38,0,0,0,1.2,1.81,3.24,3.24,0,0,0,2,.64,3.08,3.08,0,0,0,2.35-.88,3.43,3.43,0,0,0,.85-2.46,3.06,3.06,0,0,0-.57-1.9,7.72,7.72,0,0,0-2.44-1.76,10.72,10.72,0,0,1-3.18-2.22,3.55,3.55,0,0,1-.79-2.32,3.6,3.6,0,0,1,1.14-2.75,4.21,4.21,0,0,1,3-1.06,4.07,4.07,0,0,1,2.07.51,3.67,3.67,0,0,1,1.43,1.51l-1.11.67a2.35,2.35,0,0,0-1-1,3,3,0,0,0-1.5-.36,2.38,2.38,0,0,0-2.55,2.54c0,1.11.91,2.15,2.75,3.11l.75.4a8,8,0,0,1,2.71,2.1,4.48,4.48,0,0,1,.68,2.57,4.72,4.72,0,0,1-7.3,3.86A5,5,0,0,1,412.11,76.31Z"/><path class="cls-1" d="M54.65,134a3.39,3.39,0,0,1,2.21.88,2.93,2.93,0,0,1,1,2.38,3.79,3.79,0,0,1-.15,1l-9.88,29.08a2.52,2.52,0,0,1-1.07,1.38,3.45,3.45,0,0,1-1.63.53,3.33,3.33,0,0,1-3-2L34.8,150.49l.45.3-7.32,16.54a3.33,3.33,0,0,1-1.28,1.46,3.24,3.24,0,0,1-1.68.5,3.49,3.49,0,0,1-1.6-.53,2.46,2.46,0,0,1-1.11-1.38L12.39,138.3a3.79,3.79,0,0,1-.15-1,2.89,2.89,0,0,1,1.07-2.38,3.5,3.5,0,0,1,2.23-.88,3.4,3.4,0,0,1,1.78.5A2.51,2.51,0,0,1,18.45,136l8,24.16-1.1,0L32.44,143a3.34,3.34,0,0,1,1.15-1.43,2.7,2.7,0,0,1,1.71-.48,2.67,2.67,0,0,1,1.7.48A3.06,3.06,0,0,1,38.11,143l6.51,16.34-.8.5L51.69,136a2.52,2.52,0,0,1,1.16-1.46A3.54,3.54,0,0,1,54.65,134Z"/><path class="cls-1" d="M73.6,169.79A14.68,14.68,0,0,1,66.21,168a12.23,12.23,0,0,1-4.81-4.84,14,14,0,0,1-1.68-6.92,15.17,15.17,0,0,1,1.83-7.69,12.84,12.84,0,0,1,4.78-4.89A12.38,12.38,0,0,1,72.6,142,11.28,11.28,0,0,1,77.44,143a13.21,13.21,0,0,1,4,2.88,14,14,0,0,1,2.78,4.24,12.92,12.92,0,0,1,1,5.11,2.6,2.6,0,0,1-1,2,3.18,3.18,0,0,1-2.1.75H63.08l-1.51-5H80l-1.1,1v-1.36a4.54,4.54,0,0,0-1-2.6,6.7,6.7,0,0,0-2.31-1.83,6.44,6.44,0,0,0-2.93-.68,9.45,9.45,0,0,0-2.81.4,5.39,5.39,0,0,0-2.25,1.35A6.59,6.59,0,0,0,66,151.79a12.88,12.88,0,0,0-.55,4.06,8.77,8.77,0,0,0,1.13,4.59,7.68,7.68,0,0,0,6.69,3.83,11.65,11.65,0,0,0,3-.3,6.7,6.7,0,0,0,1.78-.72c.45-.29.86-.53,1.23-.73a3.83,3.83,0,0,1,1.7-.45,2.53,2.53,0,0,1,2.56,2.51,3.12,3.12,0,0,1-1.4,2.45A11.53,11.53,0,0,1,78.47,169,14.66,14.66,0,0,1,73.6,169.79Z"/><path class="cls-1" d="M158.84,169.79a14.71,14.71,0,0,1-7.4-1.78,12.3,12.3,0,0,1-4.81-4.84,14.12,14.12,0,0,1-1.68-6.92,15.17,15.17,0,0,1,1.83-7.69,12.8,12.8,0,0,1,4.79-4.89,12.31,12.31,0,0,1,6.26-1.71,11.28,11.28,0,0,1,4.84,1.06,13.21,13.21,0,0,1,4,2.88,13.86,13.86,0,0,1,2.78,4.24,12.75,12.75,0,0,1,1,5.11,2.59,2.59,0,0,1-1,2,3.23,3.23,0,0,1-2.11.75H148.31l-1.51-5h18.4l-1.1,1v-1.36a4.54,4.54,0,0,0-1-2.6,6.67,6.67,0,0,0-2.3-1.83,6.48,6.48,0,0,0-2.94-.68,9.38,9.38,0,0,0-2.8.4,5.43,5.43,0,0,0-2.26,1.35,6.46,6.46,0,0,0-1.5,2.56,12.57,12.57,0,0,0-.56,4.06,8.77,8.77,0,0,0,1.13,4.59,7.67,7.67,0,0,0,2.91,2.86,7.77,7.77,0,0,0,3.79,1,11.62,11.62,0,0,0,3-.3,6.7,6.7,0,0,0,1.78-.72c.46-.29.86-.53,1.23-.73a3.83,3.83,0,0,1,1.71-.45,2.51,2.51,0,0,1,2.55,2.51,3.1,3.1,0,0,1-1.4,2.45A11.53,11.53,0,0,1,163.7,169,14.6,14.6,0,0,1,158.84,169.79Z"/><path class="cls-1" d="M189.87,142a8.81,8.81,0,0,1,5.64,1.56,7.88,7.88,0,0,1,2.66,4.13,21.41,21.41,0,0,1,.73,5.74v12.84a3,3,0,0,1-.86,2.18,2.83,2.83,0,0,1-2.15.88,2.87,2.87,0,0,1-2.16-.88,3,3,0,0,1-.85-2.18V153.39a9.58,9.58,0,0,0-.43-3,4.12,4.12,0,0,0-1.53-2.13,5.31,5.31,0,0,0-3.15-.8,6.7,6.7,0,0,0-3.39.8,5.5,5.5,0,0,0-2.1,2.13,6.06,6.06,0,0,0-.73,3v12.84a3,3,0,0,1-.85,2.18,3.09,3.09,0,0,1-4.32,0,3,3,0,0,1-.85-2.18V145.52a3,3,0,0,1,.85-2.18,3.09,3.09,0,0,1,4.32,0,3,3,0,0,1,.85,2.18v2.16l-.75-.15a9.65,9.65,0,0,1,1.3-1.83,12.74,12.74,0,0,1,2-1.83,9.92,9.92,0,0,1,2.6-1.38A9.23,9.23,0,0,1,189.87,142Z"/><path class="cls-1" d="M216.29,142a11.09,11.09,0,0,1,3.86.65,11.46,11.46,0,0,1,3,1.66,10,10,0,0,1,2,2,3.2,3.2,0,0,1,.73,1.73l-1.3.65V145a3,3,0,0,1,.85-2.18,2.89,2.89,0,0,1,2.15-.88,2.93,2.93,0,0,1,3,3.06v22.31a11.77,11.77,0,0,1-1.88,7,10.67,10.67,0,0,1-4.94,3.81,18.23,18.23,0,0,1-6.56,1.18,17.48,17.48,0,0,1-2.61-.26q-1.6-.24-3.06-.6a17.16,17.16,0,0,1-2.21-.65,4.3,4.3,0,0,1-2.08-1.63,2.45,2.45,0,0,1-.22-2.08,3.12,3.12,0,0,1,1.45-2,2.51,2.51,0,0,1,2.11-.12q.5.15,1.65.6a25.12,25.12,0,0,0,2.53.82,9,9,0,0,0,2.44.38c2.5,0,4.36-.5,5.56-1.5a5.15,5.15,0,0,0,1.81-4.17v-4.36l.6.45a2.86,2.86,0,0,1-.68,1.58,9.17,9.17,0,0,1-1.85,1.83,10.93,10.93,0,0,1-2.79,1.53,9.22,9.22,0,0,1-3.41.63,11.83,11.83,0,0,1-6.41-1.78,12.61,12.61,0,0,1-4.52-4.91,16.62,16.62,0,0,1,0-14.44,12.75,12.75,0,0,1,4.47-4.92A11.51,11.51,0,0,1,216.29,142Zm1,5.52a7.2,7.2,0,0,0-4,1.1,7.52,7.52,0,0,0-2.65,3,9.45,9.45,0,0,0-1,4.31,9.33,9.33,0,0,0,1,4.26,7.46,7.46,0,0,0,2.65,3,7.11,7.11,0,0,0,4,1.1,7.2,7.2,0,0,0,4-1.1,7.46,7.46,0,0,0,2.65-3,9.33,9.33,0,0,0,1-4.26,9.45,9.45,0,0,0-1-4.31,7.52,7.52,0,0,0-2.65-3A7.28,7.28,0,0,0,217.25,147.48Z"/><path class="cls-1" d="M239.76,139.21a4,4,0,0,1-2.41-.56,2.33,2.33,0,0,1-.7-2v-.95a2.22,2.22,0,0,1,.78-2,4.19,4.19,0,0,1,2.38-.53,4,4,0,0,1,2.45.55,2.36,2.36,0,0,1,.71,2v.95a2.24,2.24,0,0,1-.76,2A4.38,4.38,0,0,1,239.76,139.21Zm3.06,27a3,3,0,0,1-.86,2.18,3.08,3.08,0,0,1-4.31,0,3,3,0,0,1-.85-2.18V145.52a3,3,0,0,1,.85-2.18,3.08,3.08,0,0,1,4.31,0,3,3,0,0,1,.86,2.18Z"/><path class="cls-1" d="M263.32,142a8.81,8.81,0,0,1,5.64,1.56,7.88,7.88,0,0,1,2.66,4.13,21.41,21.41,0,0,1,.73,5.74v12.84a3,3,0,0,1-.86,2.18,2.83,2.83,0,0,1-2.15.88,2.87,2.87,0,0,1-2.16-.88,3,3,0,0,1-.85-2.18V153.39a9.58,9.58,0,0,0-.43-3,4.12,4.12,0,0,0-1.53-2.13,5.31,5.31,0,0,0-3.15-.8,6.7,6.7,0,0,0-3.39.8,5.5,5.5,0,0,0-2.1,2.13,6.06,6.06,0,0,0-.73,3v12.84a3,3,0,0,1-.85,2.18,3.09,3.09,0,0,1-4.32,0,3,3,0,0,1-.85-2.18V145.52a3,3,0,0,1,.85-2.18,3.09,3.09,0,0,1,4.32,0,3,3,0,0,1,.85,2.18v2.16l-.75-.15a9.65,9.65,0,0,1,1.3-1.83,12.74,12.74,0,0,1,2-1.83,9.92,9.92,0,0,1,2.6-1.38A9.23,9.23,0,0,1,263.32,142Z"/><path class="cls-1" d="M291.25,169.79a14.71,14.71,0,0,1-7.4-1.78,12.3,12.3,0,0,1-4.81-4.84,14.12,14.12,0,0,1-1.68-6.92,15.17,15.17,0,0,1,1.83-7.69,12.87,12.87,0,0,1,4.79-4.89,12.32,12.32,0,0,1,6.27-1.71,11.27,11.27,0,0,1,4.83,1.06,13.21,13.21,0,0,1,4,2.88,13.86,13.86,0,0,1,2.78,4.24,12.75,12.75,0,0,1,1,5.11,2.59,2.59,0,0,1-.95,2,3.21,3.21,0,0,1-2.11.75H280.72l-1.51-5h18.41l-1.11,1v-1.36a4.54,4.54,0,0,0-1-2.6,6.58,6.58,0,0,0-2.3-1.83,6.47,6.47,0,0,0-2.93-.68,9.4,9.4,0,0,0-2.81.4,5.49,5.49,0,0,0-2.26,1.35,6.58,6.58,0,0,0-1.5,2.56,12.6,12.6,0,0,0-.55,4.06,8.77,8.77,0,0,0,1.12,4.59,7.68,7.68,0,0,0,6.7,3.83,11.76,11.76,0,0,0,3-.3,7,7,0,0,0,1.78-.72c.45-.29.86-.53,1.22-.73a3.86,3.86,0,0,1,1.71-.45,2.53,2.53,0,0,1,2.56,2.51,3.11,3.11,0,0,1-1.41,2.45,11.53,11.53,0,0,1-3.66,1.93A14.6,14.6,0,0,1,291.25,169.79Z"/><path class="cls-1" d="M320.33,169.79a14.71,14.71,0,0,1-7.4-1.78,12.3,12.3,0,0,1-4.81-4.84,14.12,14.12,0,0,1-1.68-6.92,15.17,15.17,0,0,1,1.83-7.69,12.8,12.8,0,0,1,4.79-4.89,12.31,12.31,0,0,1,6.26-1.71,11.28,11.28,0,0,1,4.84,1.06,13.21,13.21,0,0,1,4,2.88,13.86,13.86,0,0,1,2.78,4.24,12.75,12.75,0,0,1,1,5.11,2.59,2.59,0,0,1-.95,2A3.23,3.23,0,0,1,329,158H309.8l-1.51-5h18.4l-1.1,1v-1.36a4.54,4.54,0,0,0-1-2.6,6.67,6.67,0,0,0-2.3-1.83,6.48,6.48,0,0,0-2.94-.68,9.38,9.38,0,0,0-2.8.4,5.49,5.49,0,0,0-2.26,1.35,6.46,6.46,0,0,0-1.5,2.56,12.57,12.57,0,0,0-.56,4.06,8.77,8.77,0,0,0,1.13,4.59,7.67,7.67,0,0,0,2.91,2.86,7.77,7.77,0,0,0,3.79,1,11.62,11.62,0,0,0,3-.3,6.7,6.7,0,0,0,1.78-.72c.46-.29.86-.53,1.23-.73a3.83,3.83,0,0,1,1.71-.45,2.51,2.51,0,0,1,2.55,2.51,3.1,3.1,0,0,1-1.4,2.45,11.53,11.53,0,0,1-3.66,1.93A14.6,14.6,0,0,1,320.33,169.79Z"/><path class="cls-1" d="M340,169.29a2.87,2.87,0,0,1-2.16-.88,3,3,0,0,1-.85-2.18V145.52a3,3,0,0,1,.85-2.18,3.09,3.09,0,0,1,4.32,0,3,3,0,0,1,.85,2.18v4.72l-.35-3.36a7.51,7.51,0,0,1,1.43-2.13,8.32,8.32,0,0,1,2-1.56,8.87,8.87,0,0,1,2.35-.93A10.76,10.76,0,0,1,351,142a3.82,3.82,0,0,1,2.53.86,2.51,2.51,0,0,1,1,2,3,3,0,0,1-.85,2.38,2.79,2.79,0,0,1-1.86.73,4.24,4.24,0,0,1-1.73-.35,4.35,4.35,0,0,0-1.78-.35,4.42,4.42,0,0,0-1.83.42,5.13,5.13,0,0,0-1.7,1.33,6.85,6.85,0,0,0-1.25,2.23,9.25,9.25,0,0,0-.48,3.14v11.88a3,3,0,0,1-.85,2.18A2.87,2.87,0,0,1,340,169.29Z"/><path class="cls-1" d="M361.39,139.21a4,4,0,0,1-2.41-.56,2.33,2.33,0,0,1-.7-2v-.95a2.22,2.22,0,0,1,.78-2,4.22,4.22,0,0,1,2.38-.53,4.09,4.09,0,0,1,2.46.55,2.39,2.39,0,0,1,.7,2v.95a2.26,2.26,0,0,1-.75,2A4.45,4.45,0,0,1,361.39,139.21Zm3.06,27a3,3,0,0,1-.86,2.18,2.83,2.83,0,0,1-2.15.88,2.87,2.87,0,0,1-2.16-.88,3,3,0,0,1-.85-2.18V145.52a3,3,0,0,1,.85-2.18,2.91,2.91,0,0,1,2.16-.88,2.87,2.87,0,0,1,2.15.88,3,3,0,0,1,.86,2.18Z"/><path class="cls-1" d="M385,142a8.78,8.78,0,0,1,5.64,1.56,7.82,7.82,0,0,1,2.66,4.13,21.41,21.41,0,0,1,.73,5.74v12.84a3,3,0,0,1-.86,2.18,2.83,2.83,0,0,1-2.15.88,2.87,2.87,0,0,1-2.16-.88,3,3,0,0,1-.85-2.18V153.39a9.58,9.58,0,0,0-.43-3,4.15,4.15,0,0,0-1.52-2.13,5.36,5.36,0,0,0-3.16-.8,6.7,6.7,0,0,0-3.39.8,5.5,5.5,0,0,0-2.1,2.13,6.06,6.06,0,0,0-.73,3v12.84a3,3,0,0,1-.85,2.18,2.87,2.87,0,0,1-2.16.88,2.83,2.83,0,0,1-2.15-.88,3,3,0,0,1-.86-2.18V145.52a3,3,0,0,1,.86-2.18,2.87,2.87,0,0,1,2.15-.88,2.91,2.91,0,0,1,2.16.88,3,3,0,0,1,.85,2.18v2.16l-.75-.15a9.65,9.65,0,0,1,1.3-1.83,12.74,12.74,0,0,1,2-1.83,10.08,10.08,0,0,1,2.6-1.38A9.27,9.27,0,0,1,385,142Z"/><path class="cls-1" d="M411.37,142a11.18,11.18,0,0,1,3.87.65,11.4,11.4,0,0,1,3,1.66,10,10,0,0,1,2,2A3.2,3.2,0,0,1,421,148l-1.3.65V145a3,3,0,0,1,.85-2.18,3.1,3.1,0,0,1,4.31,0,3,3,0,0,1,.85,2.2v22.31a11.77,11.77,0,0,1-1.88,7,10.7,10.7,0,0,1-4.93,3.81,18.24,18.24,0,0,1-6.57,1.18,17.48,17.48,0,0,1-2.61-.26q-1.61-.24-3.06-.6a16.44,16.44,0,0,1-2.2-.65,4.28,4.28,0,0,1-2.09-1.63,2.48,2.48,0,0,1-.22-2.08,3.12,3.12,0,0,1,1.45-2,2.51,2.51,0,0,1,2.11-.12q.5.15,1.65.6a25.34,25.34,0,0,0,2.54.82,9,9,0,0,0,2.43.38c2.5,0,4.36-.5,5.56-1.5a5.12,5.12,0,0,0,1.81-4.17v-4.36l.6.45a2.86,2.86,0,0,1-.68,1.58,9.17,9.17,0,0,1-1.85,1.83,10.93,10.93,0,0,1-2.79,1.53,9.21,9.21,0,0,1-3.4.63,11.84,11.84,0,0,1-6.42-1.78,12.52,12.52,0,0,1-4.51-4.91,16.53,16.53,0,0,1,0-14.44,12.65,12.65,0,0,1,4.46-4.92A11.51,11.51,0,0,1,411.37,142Zm1,5.52a7.14,7.14,0,0,0-4,1.1,7.47,7.47,0,0,0-2.66,3,9.45,9.45,0,0,0-.95,4.31,9.33,9.33,0,0,0,.95,4.26,7.41,7.41,0,0,0,2.66,3,7.06,7.06,0,0,0,4,1.1,7.2,7.2,0,0,0,4-1.1,7.56,7.56,0,0,0,2.66-3,9.46,9.46,0,0,0,.95-4.26,9.58,9.58,0,0,0-.95-4.31,7.62,7.62,0,0,0-2.66-3A7.28,7.28,0,0,0,412.33,147.48Z"/><path class="cls-2" d="M115.93,144.37c.43-.53.82-1.06,1.25-1.55a9.28,9.28,0,0,1,4.73-3,7.81,7.81,0,0,1,6.21,1,9.23,9.23,0,0,1,4.1,5.51,11.59,11.59,0,0,1-.49,7.51,16.43,16.43,0,0,1-2.34,4.09c-.37.46-.82.86-1.23,1.29l-4.34,4.5-4.26,4.42-3.06,3.17a.7.7,0,0,1-1.07,0q-2.46-2.53-4.9-5.08l-4-4.14c-1.32-1.36-2.68-2.69-3.94-4.11a14.22,14.22,0,0,1-1.61-2.43,12.74,12.74,0,0,1-1.59-4.68,10,10,0,0,1,3-9.06,8,8,0,0,1,5.63-2.24,8.39,8.39,0,0,1,5.31,2,12.74,12.74,0,0,1,2.36,2.56Z"/></svg>