<svg id="Capa_1" data-name="Capa 1" xmlns="http://www.w3.org/2000/svg" viewBox="0 0 85 85"><defs><style>.cls-1{fill:#fff;}</style></defs><path class="cls-1" d="M42.27,11H79.74c2.42,0,3.51,1.08,3.51,3.48V65.78c0,2.35-1.1,3.43-3.46,3.43H5.21c-2.36,0-3.46-1.09-3.46-3.43q0-25.7,0-51.38A5.35,5.35,0,0,1,2.43,12a2.13,2.13,0,0,1,2-1Q23.36,11,42.27,11ZM7.64,19.52v43.8H77.37V22.11l-.84.49Q60.67,32.38,44.84,42.17A3.81,3.81,0,0,1,40.16,42Q28.87,34.17,17.52,26.36Zm6.45-2.67c.31.25.44.36.58.46q13.67,9.5,27.31,19c.5.34.8.18,1.2-.07L73.91,17.36c.21-.12.39-.28.71-.51Z"/></svg>