<svg id="Capa_1" data-name="Capa 1" xmlns="http://www.w3.org/2000/svg" viewBox="0 0 85 85"><defs><style>.cls-1{fill:#fff;}</style></defs><path class="cls-1" d="M67.33,52.81a14.66,14.66,0,0,1-14.75-14.7,24.62,24.62,0,0,1,.75-5c0-.19.09-.39.13-.59a19.6,19.6,0,0,0-11.08-2.8,20.21,20.21,0,0,0-10.72,2.69,14.88,14.88,0,0,1-8.94,18.86A15,15,0,0,1,11,50.7,14.84,14.84,0,0,1,3.35,42c-.17-.51-.32-1-.48-1.54l-.3-1.4.06-4C4.12,28.56,8.16,23.44,15,19.41a46.76,46.76,0,0,1,15.64-5.65c1.94-.35,3.89-.59,5.85-.84.86-.1,1.71-.21,2.56-.33l.34,0,7.23.12a9.27,9.27,0,0,0,.92.14c8.57.67,15.8,2.75,22.1,6.35,5.66,3.24,9.23,6.92,11.23,11.61a27.12,27.12,0,0,1,1.1,3.34c.12.45.24.91.38,1.35l.11.73v3.85l-.26.73A14.89,14.89,0,0,1,67.33,52.81ZM42.51,24.74a24.58,24.58,0,0,1,13.73,3.64c.45.29.88.61,1.2.85L59,30.33l-.28,1.55c-.14.79-.31,1.57-.48,2.32a21.22,21.22,0,0,0-.63,4,9.7,9.7,0,0,0,8.62,9.59,10,10,0,0,0,11-7.84,4.83,4.83,0,0,1,.22-.74V36.58c-.11-.37-.21-.75-.32-1.12a22.13,22.13,0,0,0-.87-2.71c-1.55-3.63-4.45-6.57-9.12-9.24-5.64-3.22-12.19-5.09-20-5.71a13.07,13.07,0,0,1-1.38-.19l-.3-.05H39.52l-2.44.31c-1.87.24-3.74.47-5.59.8a41.72,41.72,0,0,0-14,5C12,27,8.79,30.88,7.56,35.93l.11,3.14c.13.45.26.9.41,1.35a9.84,9.84,0,0,0,5.1,5.78,10,10,0,0,0,7.84.39,9.9,9.9,0,0,0,5.77-12.94,3.85,3.85,0,0,1,1.6-5.07,24.89,24.89,0,0,1,14-3.84Z"/><path class="cls-1" d="M79.18,72.43H5.81L5.72,70a34.2,34.2,0,0,1,4.93-18.74,4,4,0,0,1,4-1.58l-.92,4.91c.69.13,1.23-.77,1.26-.82a29.57,29.57,0,0,0-4.26,13.64H74.29A31.16,31.16,0,0,0,70,53.68l4.37-2.41C78,57.72,79.56,63.86,79.28,70Zm-36.69-6.5a12.81,12.81,0,0,1-.12-25.62A13.25,13.25,0,0,1,51.5,44a12.79,12.79,0,0,1-9,21.91v0Zm0-20.63h-.07a7.85,7.85,0,0,0-7.73,7.83A7.76,7.76,0,0,0,37,58.67a7.32,7.32,0,0,0,5.57,2.26h0a7.82,7.82,0,0,0-.05-15.63Z"/></svg>