<?xml version="1.0" encoding="UTF-8" standalone="no"?>
<!DOCTYPE svg PUBLIC "-//W3C//DTD SVG 1.1//EN" "http://www.w3.org/Graphics/SVG/1.1/DTD/svg11.dtd">
<svg version="1.1" xmlns="http://www.w3.org/2000/svg" xmlns:xlink="http://www.w3.org/1999/xlink" preserveAspectRatio="xMidYMid meet" viewBox="399.55949760950364 23.42 2203.060522062632 2935.840020102282" width="2199.06" height="2931.84"><defs><path d="M2232.96 940.62L2232.96 1123.86L2416.2 1123.86L2416.2 2773.02L583.8 2773.02L583.8 1123.86L767.04 1123.86L767.04 940.62C602.02 940.62 510.34 940.62 492 940.62C441.55 940.69 400.66 981.55 400.56 1032C400.56 1215.24 400.56 2681.16 400.56 2864.4C400.39 2914.97 441.25 2956.09 491.82 2956.26C491.88 2956.26 491.94 2956.26 492 2956.26C693.6 2956.26 2306.4 2956.26 2508 2956.26C2558.57 2956.29 2599.59 2915.33 2599.62 2864.76C2599.62 2864.72 2599.62 2864.68 2599.62 2864.64C2599.62 2681.38 2599.62 1215.26 2599.62 1032C2599.52 981.48 2558.52 940.59 2508 940.62C2471.33 940.62 2379.65 940.62 2232.96 940.62Z" id="a4Ibg1iLla"></path><path d="M1408.38 375.18L1408.38 1673.58L1591.62 1673.58L1591.62 375.18L1984.92 768.48L2114.52 638.94L1500 24.42L885.48 638.94L1015.08 768.48L1408.38 375.18Z" id="f4ikPkmPf7"></path></defs><g><g><use xlink:href="#a4Ibg1iLla" opacity="1" fill="#00747f" fill-opacity="1"></use><g><use xlink:href="#a4Ibg1iLla" opacity="1" fill-opacity="0" stroke="#000000" stroke-width="1" stroke-opacity="0"></use></g></g><g><use xlink:href="#f4ikPkmPf7" opacity="1" fill="#00747f" fill-opacity="1"></use><g><use xlink:href="#f4ikPkmPf7" opacity="1" fill-opacity="0" stroke="#000000" stroke-width="1" stroke-opacity="0"></use></g></g></g></svg>