<svg id="Capa_1" data-name="Capa 1" xmlns="http://www.w3.org/2000/svg" viewBox="0 0 85 85"><defs><style>.cls-1{fill:#fff;}</style></defs><path class="cls-1" d="M3.53,81.1c1.25-3.7,2.41-7.16,3.58-10.61,1-2.94,2-5.87,3-8.83a2.63,2.63,0,0,0-.18-1.85A38.13,38.13,0,0,1,24.28,7.86c22.39-13,51.64.35,56.48,25.68A38.06,38.06,0,0,1,50,78.51a37.32,37.32,0,0,1-24.13-3.57,2.83,2.83,0,0,0-2.36-.17C16.94,76.88,10.37,78.94,3.53,81.1Zm9.66-9.48c.52-.12.76-.17,1-.24,3.43-1.1,6.86-2.24,10.32-3.28a2.55,2.55,0,0,1,1.82.2A32.23,32.23,0,0,0,75.14,36.53a32.15,32.15,0,1,0-58.7,22.2,2.39,2.39,0,0,1,.29,2.4C15.53,64.53,14.42,68,13.19,71.62Z"/><path class="cls-1" d="M31.35,23.74c2-.54,2.63.69,3.19,2.13.81,2,1.64,4.05,2.52,6.05a2.49,2.49,0,0,1-.26,2.72c-.62.79-1.25,1.58-1.92,2.33a1.6,1.6,0,0,0-.27,2.15,25.82,25.82,0,0,0,12.88,11,1.5,1.5,0,0,0,1.9-.49c.88-1.07,1.81-2.11,2.61-3.24a1.78,1.78,0,0,1,2.49-.71c2.46,1.18,4.91,2.38,7.37,3.54.88.42.86,1.17.82,1.93-.22,4-2.42,6.2-6.83,7.48a10.67,10.67,0,0,1-5.71-.27c-10.66-2.72-18-9.58-23.43-18.79-1.94-3.3-2.92-6.88-1.49-10.61a13.35,13.35,0,0,1,2.87-4.34c.75-.77,2.12-.92,3.21-1.35Z"/></svg>